<?xml version="1.0" encoding="UTF-8"?>
<svg id="piece2" width="32" height="32" viewBox="-0.966 -0.696 55 55" enable-background="new -0.966 -0.696 55 55">
  <path fill="#0C6EB7" d="M0,26.711C0,11.953,11.953,0,26.707,0s26.711,11.953,26.711,26.711c0,14.742-11.957,26.699-26.711,26.699
    S0,41.453,0,26.711"/>
  <path fill="#FFFFFF" d="M36.133,39.574v-4.738h-11.68c0.367-1.641,3.211-4.008,4.652-5.328c3.41-3.098,6.496-5.297,6.496-10.148
    c0-5.77-4.684-8.578-9.656-8.578c-3.812,0-6.336,1.121-9.066,3.492l2.977,3.93c0.676-0.766,2.402-2.57,4.883-2.57
    c3.086,0,4.688,1.965,4.688,4.406c0,2.734-2.031,4.691-3.918,6.336c-3.777,3.289-7.023,6.172-7.742,9.469v3.73H36.133"/>
</svg>
