<?xml version="1.0" standalone="no"?>
<!DOCTYPE svg PUBLIC "-//W3C//DTD SVG 1.1//EN" "http://www.w3.org/Graphics/SVG/1.1/DTD/svg11.dtd" >
<svg xmlns="http://www.w3.org/2000/svg">
<metadata>
This is a custom SVG webfont generated by Font Squirrel.
Copyright   : Copyright c 2010 by Font Diner Inc DBA Sideshow All rights reserved
Designer    : Squid
Foundry     : Font Diner Inc DBA Sideshow
Foundry URL : httpwwwfontbroscomsideshowphp
</metadata>
<defs>
<font id="ChewyRegular" horiz-adv-x="962" >
<font-face units-per-em="2048" ascent="1638" descent="-410" />
<missing-glyph horiz-adv-x="482" />
<glyph unicode=" "  horiz-adv-x="482" />
<glyph unicode="&#x09;" horiz-adv-x="482" />
<glyph unicode="&#xa0;" horiz-adv-x="482" />
<glyph unicode="!" horiz-adv-x="496" d="M62 980v91q0 55 5 117t16 123t33 111t58 81t90 31q48 0 79 -41t50 -106t28 -145t12 -157t2 -143t-1 -104q0 -32 -4 -87t-12 -118t-23 -128t-35 -118t-48 -86t-64 -33q-44 0 -75 43t-52 110t-33 149t-18 161t-7 146t-1 103zM98 40q0 30 17 55t43 43t57 28t59 10 q46 0 84 -23t38 -75q0 -34 -16 -59t-42 -42t-56 -25t-60 -8q-44 0 -84 23t-40 73z" />
<glyph unicode="&#x22;" horiz-adv-x="582" d="M62 1292q0 20 2 54t11 67t26 56t49 23q36 0 57 -21t33 -52t15 -65t3 -60q0 -30 -4 -93t-14 -126t-30 -110t-50 -47q-18 0 -32 24t-25 60t-19 80t-13 86t-7 75t-2 49zM324 1292q0 20 2 54t11 67t26 56t49 23q36 0 57 -21t33 -52t15 -65t3 -60q0 -30 -4 -93t-14 -126 t-30 -110t-50 -47q-18 0 -32 24t-25 60t-19 80t-13 86t-7 75t-2 49z" />
<glyph unicode="#" horiz-adv-x="1060" d="M0 542q0 28 33 45t76 27t85 13t62 5q16 70 30 139t32 137q-14 0 -49 4t-72 12t-65 21t-28 33q0 28 33 45t76 27t86 14t61 6q4 14 13 46t22 72t30 82t34 77t36 58t37 23t27 -14t14 -34t6 -39t1 -31q0 -58 -8 -114t-20 -114q34 2 65 1t65 -3q6 20 23 77t41 117t52 107 t54 47q18 0 27 -14t14 -34t6 -39t1 -31q0 -64 -10 -126t-22 -126q12 -2 43 -8t64 -17t59 -25t26 -30t-30 -28t-69 -20t-74 -12t-47 -6q-16 -72 -34 -145t-34 -145q10 -2 40 -9t62 -17t57 -24t25 -30t-30 -28t-69 -20t-75 -12t-48 -6q-6 -22 -24 -85t-42 -132t-51 -122 t-53 -53q-18 0 -28 15t-16 36t-7 42t-1 33q0 64 9 127t19 127q-32 -2 -64 -2h-64q-6 -20 -23 -81t-41 -127t-51 -118t-53 -52q-18 0 -28 15t-16 36t-7 42t-1 33q0 68 9 132t23 126q-14 2 -51 6t-75 12t-68 21t-30 35zM456 646h62q30 0 60 -2q14 64 27 129t29 129 q-28 -2 -57 -1t-59 1q-16 -64 -31 -128t-31 -128z" />
<glyph unicode="$" horiz-adv-x="972" d="M52 374q0 46 35 76t79 30q38 0 75 -12t76 -26t80 -26t85 -12q16 0 40 3t46 12t38 24t16 39q0 22 -20 40t-47 32t-55 25t-44 17q-64 26 -134 61t-129 82t-98 109t-39 144q0 72 29 131t78 101t112 67t133 29q8 46 14 93t18 93q18 62 88 62q28 0 54 -15t26 -45q0 -40 -6 -86 t-10 -86q42 -10 88 -25t89 -36t80 -51t59 -70q6 -12 10 -23t4 -23q0 -28 -15 -47t-38 -32t-49 -19t-48 -6q-34 0 -66 11t-65 23t-71 23t-84 11q-18 0 -43 -4t-47 -14t-37 -26t-15 -40q0 -36 42 -65t106 -60t137 -68t137 -85t106 -111t42 -149q0 -74 -26 -118t-68 -71 t-96 -42t-108 -29q-10 -2 -11 -23t-1 -50t-1 -62t-11 -61t-32 -47t-64 -19q-38 0 -71 25t-33 65q0 16 1 31t1 31v22q0 16 -2 34t-6 32t-10 16q-38 10 -94 22t-107 33t-87 53t-36 82z" />
<glyph unicode="%" horiz-adv-x="1650" d="M40 1014q0 64 23 147t68 158t108 126t145 51q90 0 147 -45t91 -112t47 -146t13 -145q0 -70 -19 -152t-60 -152t-105 -117t-154 -47q-78 0 -135 46t-94 112t-56 141t-19 135zM240 1006q0 -28 7 -64t20 -69t34 -56t51 -23q36 0 64 28t47 68t29 85t10 79q0 28 -6 65t-20 70 t-34 56t-48 23q-36 0 -65 -28t-49 -68t-30 -85t-10 -81zM294 30q0 38 27 101t68 138t93 157t101 157t92 138t67 99q16 24 57 84t95 136t115 158t119 149t106 111t76 44q26 0 33 -18t7 -30q0 -26 -15 -67t-40 -92t-58 -108t-67 -113q-36 -58 -73 -114t-70 -106t-60 -89 t-43 -63q-14 -20 -42 -61t-65 -95t-82 -117t-91 -125q-46 -60 -91 -119t-87 -105t-76 -74t-54 -28q-28 0 -35 21t-7 31zM950 428q0 62 23 146t67 158t107 126t143 52q90 0 148 -45t92 -113t47 -146t13 -144q0 -70 -19 -152t-60 -152t-105 -117t-154 -47q-78 0 -135 45 t-94 112t-55 142t-18 135zM1148 418q0 -28 6 -64t20 -68t35 -55t49 -23q36 0 64 28t48 68t30 85t10 79q0 26 -7 63t-20 70t-34 56t-47 23q-36 0 -65 -28t-49 -68t-30 -85t-10 -81z" />
<glyph unicode="&#x26;" horiz-adv-x="1424" d="M62 392q0 76 31 145t79 128t106 108t114 89q-28 36 -50 79t-37 89t-23 93t-8 89q0 72 26 135t71 110t108 73t137 26q68 0 132 -28t114 -75t81 -110t31 -135q0 -56 -19 -105t-50 -93t-68 -84t-73 -76q58 -88 119 -172t123 -170q24 24 54 51t64 50t70 38t72 15q50 0 73 -27 t23 -73q0 -42 -20 -83t-49 -77t-63 -67t-62 -53q18 -24 44 -60t50 -77t41 -80t17 -65q0 -48 -34 -77t-76 -29q-30 0 -70 25t-80 59t-77 69t-57 57q-92 -60 -212 -92t-228 -32q-94 0 -171 28t-134 81t-88 130t-31 173zM398 396q0 -132 136 -132q56 0 117 21t111 53 q-32 42 -60 78t-54 72t-53 74t-59 84q-64 -46 -101 -109t-37 -141zM530 1188q0 -50 21 -91t59 -73q40 34 71 80t31 96q0 34 -37 59t-73 25q-40 0 -56 -26t-16 -70z" />
<glyph unicode="'" horiz-adv-x="320" d="M62 1292q0 20 2 54t11 67t26 56t49 23q36 0 57 -21t33 -52t15 -65t3 -60q0 -30 -4 -93t-14 -126t-30 -110t-50 -47q-18 0 -32 24t-25 60t-19 80t-13 86t-7 75t-2 49z" />
<glyph unicode="(" horiz-adv-x="544" d="M82 710q0 80 14 164t38 167t55 161t67 150q12 24 30 58t42 65t52 53t60 22q26 0 45 -16t19 -42q0 -28 -22 -67t-34 -67q-64 -150 -110 -315t-46 -331t47 -338t117 -322q14 -28 31 -55t17 -57q0 -28 -19 -44t-47 -16q-36 0 -67 20t-57 50t-47 64t-35 62q-74 144 -112 308 t-38 326z" />
<glyph unicode=")" horiz-adv-x="550" d="M40 -60q0 30 22 68t34 68q64 150 113 317t49 335q0 166 -44 334t-114 320q-12 28 -29 55t-17 55t19 45t45 17q36 0 68 -20t58 -50t46 -64t34 -62q70 -144 107 -306t37 -322v-12q0 -78 -14 -162t-39 -166t-57 -162t-68 -148q-12 -24 -31 -58t-43 -64t-52 -52t-60 -22 q-22 0 -43 16t-21 40z" />
<glyph unicode="*" horiz-adv-x="940" d="M62 828q0 26 29 59t67 64t76 57t58 38q-18 12 -56 37t-75 55t-66 61t-29 55q0 22 17 30t35 8q26 0 62 -10t72 -24t69 -30t57 -28q2 16 9 68t20 107t31 98t42 43q20 0 34 -43t22 -99t13 -107t7 -67q26 12 61 27t74 27t76 21t67 9q10 0 27 -3t17 -19q0 -22 -30 -53t-70 -63 t-78 -58t-54 -38q18 -12 56 -42t77 -65t69 -70t30 -59q0 -16 -10 -20t-22 -4q-26 0 -66 12t-81 30t-79 36t-62 30q0 -18 -3 -69t-11 -106t-23 -98t-41 -43q-32 0 -51 41t-29 94t-14 104t-6 73q-24 -12 -59 -31t-73 -35t-75 -28t-65 -12q-18 0 -32 9t-14 31z" />
<glyph unicode="+" d="M40 514q0 36 48 54t110 25t121 6t81 -1v38q0 20 3 70t14 102t30 91t53 39q28 0 44 -46t23 -104t8 -113t1 -73q38 -2 76 -3t76 -3q14 0 46 -2t65 -9t58 -20t25 -35q0 -24 -24 -37t-56 -20t-64 -9t-46 -2q-40 -2 -79 -3t-77 -1q-2 -14 -3 -43t-4 -66t-8 -76t-15 -71 t-23 -54t-33 -24q-28 -2 -47 42t-31 101t-18 111l-8 72q-22 0 -78 1t-116 6t-106 18t-46 39z" />
<glyph unicode="," horiz-adv-x="368" d="M20 118q0 64 42 103t106 39q72 0 126 -38t54 -116q0 -32 -17 -82t-42 -98t-57 -82t-62 -34q-40 0 -40 40q0 24 10 46t22 43t22 42t10 41q-30 -20 -64 -20q-46 0 -78 36t-32 80z" />
<glyph unicode="-" horiz-adv-x="920" d="M40 510q0 34 57 54t132 29t148 11t107 2q20 0 57 -2t80 -7t89 -13t83 -18t61 -24t24 -32t-29 -29t-75 -19t-101 -13t-105 -7t-90 -3t-56 -1q-20 0 -82 1t-129 7t-119 21t-52 43z" />
<glyph unicode="." horiz-adv-x="370" d="M20 134q0 54 46 81t94 27q30 0 63 -10t62 -29t47 -46t18 -61q0 -26 -12 -47t-31 -35t-42 -22t-47 -8q-30 0 -65 11t-64 31t-49 47t-20 61z" />
<glyph unicode="/" horiz-adv-x="782" d="M20 98q0 64 32 162t76 204t90 205t74 163q12 28 41 88t67 134t82 153t87 144t83 107t68 42t35 -25t7 -43q0 -60 -30 -155t-72 -197t-86 -196t-72 -152q-14 -28 -44 -91t-70 -143t-85 -165t-89 -155t-83 -115t-65 -45q-28 0 -37 30t-9 50z" />
<glyph unicode="0" horiz-adv-x="1264" d="M30 636q0 82 22 172t63 178t98 169t128 142t154 97t173 36q154 0 260 -66t171 -171t94 -236t29 -263q0 -136 -41 -273t-120 -248t-197 -180t-272 -69q-130 0 -234 68t-177 173t-112 230t-39 241zM360 622q0 -52 14 -118t44 -125t77 -100t111 -41q78 0 139 49t102 120 t63 152t22 145q0 50 -14 118t-43 128t-75 102t-110 42q-78 0 -139 -49t-103 -121t-65 -154t-23 -148z" />
<glyph unicode="1" horiz-adv-x="552" d="M52 1268q0 82 49 140t135 58q74 0 116 -56t61 -134t23 -159t4 -131q0 -62 -2 -124l-4 -124q-4 -102 -4 -203t-6 -203q-2 -34 -4 -91t-15 -112t-41 -96t-78 -41q-48 0 -78 33t-47 84t-23 114t-7 124t1 113t2 80q0 136 1 272t3 272q-40 34 -63 83t-23 101z" />
<glyph unicode="2" horiz-adv-x="1038" d="M20 184q0 28 7 51t27 43q24 26 50 51t50 49q28 30 74 79t99 110t106 128t97 131t71 120t27 96q0 38 -22 63t-60 25q-42 0 -78 -30t-72 -65t-77 -65t-93 -30q-62 0 -97 36t-35 96q0 88 39 163t103 129t144 85t164 31q86 0 160 -20t128 -62t85 -107t31 -157q0 -72 -25 -151 t-66 -159t-94 -159t-109 -151t-112 -134t-102 -108q98 12 206 24t208 12q58 0 101 -31t43 -93q0 -58 -38 -94t-92 -46q-60 -14 -136 -25t-155 -19t-155 -12t-138 -4q-16 0 -45 1t-60 4t-58 9t-41 16q-14 12 -25 33t-19 46t-12 49t-4 42z" />
<glyph unicode="3" horiz-adv-x="998" d="M52 1168q0 28 12 58t28 52q68 104 181 156t233 52q184 0 293 -100t109 -282q0 -108 -45 -190t-153 -118q58 -12 101 -45t71 -79t41 -100t13 -108q0 -112 -44 -206t-118 -163t-172 -108t-204 -39q-40 0 -99 7t-113 27t-92 54t-38 88q0 58 31 90t89 32t113 -11t113 -11 q44 0 88 14t79 41t57 64t22 85q0 26 -10 64t-28 71t-44 57t-58 24q-30 0 -59 -10t-60 -21t-63 -21t-66 -10q-44 0 -65 37t-21 73q0 84 76 114q40 16 101 43t119 63t100 81t42 97q0 40 -32 78t-76 38t-82 -24t-75 -53t-76 -53t-83 -24q-22 0 -46 9t-44 24t-33 37t-13 46z" />
<glyph unicode="4" horiz-adv-x="1088" d="M62 888v56v90q0 44 4 90q2 44 5 105t20 117t50 96t95 40q38 0 61 -36t36 -84t17 -97t4 -75q0 -60 -5 -120t-15 -118q58 4 115 7t115 7q2 20 7 81t13 130t16 129t16 78q16 38 50 63t78 25q52 0 74 -32t30 -76q10 -56 12 -116t2 -118q0 -86 -6 -172q44 -4 86 -10t86 -16 q48 -10 74 -44t26 -82q0 -52 -28 -82t-76 -40q-94 -22 -184 -30q-8 -78 -14 -155t-12 -153q-4 -36 -8 -99t-19 -123t-44 -105t-79 -45q-48 0 -75 42t-41 98t-18 113t-4 89q0 82 5 161t9 159q-52 -4 -104 -5t-104 -1q-24 0 -60 1t-72 5t-67 15t-45 33q-10 14 -15 49t-8 76 t-3 79z" />
<glyph unicode="5" horiz-adv-x="1052" d="M72 288q0 52 32 84t84 32q50 0 84 -20t67 -45t75 -45t108 -20q80 0 130 56t50 134q0 74 -34 128t-112 54q-36 0 -65 -8t-56 -18t-54 -19t-55 -13q-22 -4 -56 3t-69 21t-63 33t-36 41q-6 18 -11 78t-8 130t-4 133t-1 87v52q0 36 3 75t7 73t14 46q12 18 59 34t110 30 t137 25t141 19t122 12t79 4q28 0 59 -7t56 -22t41 -39t16 -58q0 -54 -38 -86t-84 -48q-36 -12 -88 -20t-106 -15t-105 -11t-89 -6l4 -290q40 8 80 13t82 5q212 0 323 -110t111 -322q0 -118 -37 -210t-104 -156t-160 -98t-207 -34q-62 0 -137 22t-141 64t-110 101t-44 131z " />
<glyph unicode="6" horiz-adv-x="1082" d="M30 556q0 80 28 180t78 203t116 200t142 173t159 122t163 46q46 0 83 -25t37 -75q0 -28 -24 -60t-57 -63t-68 -60t-55 -53q-46 -52 -85 -111t-67 -123q30 10 62 15t64 5q102 0 181 -42t133 -111t82 -158t28 -183q0 -116 -41 -204t-111 -146t-165 -88t-205 -30 q-124 0 -215 50t-149 133t-86 188t-28 217zM348 548q0 -46 13 -97t39 -95t66 -72t94 -28q82 0 136 46t54 132q0 106 -65 163t-167 57q-34 0 -78 -10t-76 -30q-12 -8 -14 -30t-2 -36z" />
<glyph unicode="7" horiz-adv-x="1070" d="M30 1240q0 48 33 84t86 61t118 41t128 26t117 13t86 3q34 0 99 -5t134 -16t127 -30t78 -49q10 -12 11 -23t1 -25q0 -28 -15 -78t-38 -113t-52 -132t-57 -132l-52 -117q-24 -54 -38 -84q-26 -60 -66 -151t-86 -186t-95 -178t-91 -129t-100 -46q-44 0 -74 28t-30 74 q0 62 27 148t64 175t77 173t68 144q52 118 104 233t104 233q-28 4 -59 6t-59 2q-102 0 -209 -15t-207 -35q-10 -2 -30 -2q-46 0 -75 28t-29 74z" />
<glyph unicode="8" horiz-adv-x="1212" d="M20 274q0 78 26 147t71 128t104 105t125 80q-50 16 -97 46t-83 70t-58 90t-22 106q0 110 59 191t149 133t195 77t197 25q70 0 142 -16t131 -52t97 -94t38 -140q0 -128 -73 -225t-181 -157q70 -18 131 -58t106 -95t70 -123t25 -142q0 -124 -60 -214t-153 -148t-206 -86 t-221 -28q-80 0 -170 23t-166 70t-126 119t-50 168zM352 306q0 -36 26 -60t62 -38t75 -20t65 -6q40 0 87 9t86 30t65 55t26 82t-22 87t-57 67t-78 47t-85 27q-40 -18 -84 -45t-81 -63t-61 -79t-24 -93zM432 1082q0 -34 18 -59t45 -43t58 -27t59 -11q20 12 50 31t59 44t49 52 t20 55q0 24 -15 38t-36 23t-44 12t-39 3q-24 0 -62 -6t-74 -20t-62 -37t-26 -55z" />
<glyph unicode="9" horiz-adv-x="1064" d="M52 956q0 112 35 206t100 163t156 108t205 39q120 0 211 -43t152 -118t92 -175t31 -212q0 -80 -27 -184t-74 -212t-110 -212t-138 -186t-156 -132t-163 -50q-44 0 -79 27t-35 75q0 22 7 37t19 31q44 56 90 103t91 94t87 99t76 120q-66 -18 -136 -18q-100 0 -181 31 t-137 89t-86 139t-30 181zM324 974q0 -104 57 -159t159 -55q106 0 167 46t61 154q0 48 -13 94t-39 82t-65 58t-93 22q-108 0 -171 -67t-63 -175z" />
<glyph unicode=":" horiz-adv-x="392" d="M20 134q0 54 46 81t94 27q30 0 63 -10t62 -29t47 -46t18 -61q0 -26 -12 -47t-31 -35t-42 -22t-47 -8q-30 0 -65 11t-64 31t-49 47t-20 61zM20 622q0 56 46 83t94 27q30 0 63 -10t62 -29t47 -46t18 -61q0 -26 -12 -47t-31 -35t-42 -22t-47 -8q-30 0 -65 11t-64 30t-49 46 t-20 61z" />
<glyph unicode=";" horiz-adv-x="392" d="M20 622q0 56 46 83t94 27q30 0 63 -10t62 -29t47 -46t18 -61q0 -26 -12 -47t-31 -35t-42 -22t-47 -8q-30 0 -65 11t-64 30t-49 46t-20 61zM24 118q0 64 42 103t104 39q72 0 126 -38t54 -116q0 -32 -16 -82t-42 -98t-57 -82t-61 -34q-40 0 -40 40q0 24 10 46t22 43t22 42 t8 41q-12 -10 -29 -15t-33 -5q-46 0 -78 36t-32 80z" />
<glyph unicode="&#x3c;" horiz-adv-x="664" d="M20 492q0 28 31 74t80 98t109 105t118 96t108 70t78 27t41 -18t13 -40q0 -24 -23 -60t-60 -76t-82 -83t-89 -82t-81 -71t-57 -50l63 -42q39 -26 83 -57t89 -65t80 -69t58 -69t23 -62q0 -22 -8 -39t-36 -17q-32 0 -84 22t-112 59t-121 83t-110 94t-80 93t-31 79z" />
<glyph unicode="=" horiz-adv-x="984" d="M62 660q0 22 27 38t68 26t93 16t101 9t90 4t63 1q30 0 95 -5t132 -16t118 -29t51 -44q0 -18 -30 -29t-75 -19t-100 -13t-106 -7t-91 -3t-56 -1h-47q-33 0 -75 2t-88 6t-83 12t-62 20t-25 32zM84 368q0 22 27 38t68 26t93 16t101 9t90 4t63 1q30 0 95 -5t132 -16t118 -29 t51 -44q0 -16 -30 -28t-75 -20t-100 -13t-106 -7t-91 -3t-56 -1h-47q-33 0 -75 2t-88 6t-83 12t-62 21t-25 31z" />
<glyph unicode="&#x3e;" horiz-adv-x="646" d="M40 888q0 24 9 42t37 18q32 0 84 -22t112 -59t121 -83t110 -94t80 -93t31 -79q0 -28 -31 -74t-79 -99t-108 -106t-118 -96t-109 -70t-79 -27q-26 0 -38 18t-12 40q0 36 49 96t114 123t129 119l96 84q-36 24 -103 69t-132 96t-114 103t-49 94z" />
<glyph unicode="?" horiz-adv-x="1000" d="M40 1218q0 78 46 133t114 88t144 48t136 15q80 0 165 -35t154 -93t114 -136t45 -162q0 -64 -33 -119t-82 -102t-108 -82t-109 -55q12 -96 12 -198q0 -34 -1 -76t-12 -79t-36 -63t-71 -26q-80 0 -108 80q-10 30 -16 81t-9 106t-3 107v86q0 28 3 66t19 62q18 26 60 51 t87 53t79 62t34 80q0 34 -16 62t-41 47t-56 30t-63 11q-76 0 -120 -25t-75 -54t-58 -54t-69 -25q-48 0 -87 34t-39 82zM364 68q0 32 17 57t43 43t57 27t59 9q46 0 84 -24t38 -76q0 -34 -17 -58t-42 -40t-56 -24t-59 -8q-46 0 -85 22t-39 72z" />
<glyph unicode="@" horiz-adv-x="1448" d="M30 730q0 152 55 288t153 239t232 163t292 60q144 0 264 -46t207 -131t136 -204t49 -265q0 -88 -24 -179t-72 -164t-122 -120t-174 -47q-76 0 -131 54t-65 128q-2 -40 -21 -70t-48 -49t-65 -29t-72 -10q-64 0 -115 28t-87 74t-56 104t-20 116q0 92 36 176t97 149t143 104 t176 39q42 0 93 -9t87 -27q28 -14 33 -49t5 -59q0 -58 -10 -118t-22 -118q-10 -42 -19 -83t-9 -83q0 -34 12 -61t52 -27q50 0 88 41t63 99t37 120t12 104q0 100 -38 175t-102 124t-149 74t-181 25q-120 0 -215 -43t-161 -117t-102 -175t-36 -215q0 -118 36 -216t103 -169 t163 -111t216 -40q62 0 119 12t110 27t102 27t97 12q26 0 59 -12t33 -46q0 -38 -34 -68t-86 -53t-116 -38t-126 -25t-112 -15t-76 -5q-60 0 -129 7t-127 29q-112 42 -194 113t-136 162t-81 199t-27 224zM520 672q0 -24 8 -51t23 -49t36 -36t49 -14q24 0 52 16t53 38t43 48 t22 46q16 70 27 139t23 139q-10 2 -21 2h-21q-36 0 -74 -8t-72 -24t-62 -40t-44 -56q-18 -36 -30 -74t-12 -76z" />
<glyph unicode="A" horiz-adv-x="1140" d="M52 292q0 114 18 225t42 221q12 58 32 136t49 161t68 164t89 145t114 104t142 40q76 0 132 -34t98 -90t70 -127t47 -144t32 -143t23 -124q26 -130 44 -263t18 -267q0 -40 -7 -96t-27 -107t-54 -86t-90 -35q-74 0 -111 54t-53 129t-19 153t-5 124q-144 -24 -284 -42 q-4 -46 -17 -114t-40 -131t-70 -109t-105 -46q-48 0 -75 35t-41 83t-17 99t-3 85zM448 694q120 10 236 30v58q0 24 -3 79t-13 110t-31 98t-57 43q-20 0 -38 -27t-32 -68t-25 -91t-19 -96t-12 -83t-6 -53z" />
<glyph unicode="B" horiz-adv-x="974" d="M62 554v70v141q0 71 4 141q0 18 1 56t2 85t4 99t8 97t14 77t21 40q46 30 102 57t116 47t120 32t114 12q74 0 143 -21t120 -63t82 -103t31 -139q0 -138 -68 -251t-182 -189q60 -12 104 -41t73 -71t44 -95t15 -111q0 -114 -53 -199t-137 -140t-187 -82t-205 -27 q-56 0 -112 8t-106 28q-18 6 -30 49t-19 105t-11 134t-6 138t-2 116zM400 386q0 -12 1 -25t4 -24t7 -11q28 0 62 16t63 40t48 55t19 61q0 34 -24 48t-54 14q-28 0 -59 -13t-51 -31q-6 -4 -9 -20t-4 -35t-2 -36t-1 -23v-16zM400 881q0 -9 1 -19t3 -18t6 -8q34 0 70 25t65 62 t48 79t19 74q0 34 -21 50t-55 16q-28 0 -59 -12t-53 -32q-6 -6 -11 -34t-8 -63t-4 -66t-1 -41v-13z" />
<glyph unicode="C" horiz-adv-x="964" d="M10 618q0 84 16 184t48 201t81 195t115 166t149 116t183 44q98 0 164 -49t106 -124t56 -164t16 -169q0 -38 -9 -80t-29 -78t-52 -60t-78 -24q-70 0 -104 25t-48 63t-15 81t-3 81t-13 63t-47 25q-40 0 -70 -29t-52 -75t-37 -104t-24 -115t-13 -108t-4 -83q0 -42 3 -100 t19 -111t48 -90t92 -37q40 0 78 10t76 23t77 23t79 10q46 0 76 -37t30 -83q0 -64 -40 -119t-99 -97t-128 -66t-125 -24q-144 0 -244 65t-162 168t-89 230t-27 253z" />
<glyph unicode="D" horiz-adv-x="1120" d="M62 451v71q0 68 2 135t6 135q0 22 3 65t7 97t10 113t13 110t14 90t17 53q26 44 80 78t117 56t128 33t113 11q132 0 229 -49t162 -132t96 -191t31 -226q0 -176 -72 -339t-193 -289t-282 -201t-339 -75h-4q-36 0 -59 33t-39 83t-24 112t-12 121t-4 106zM398 583 q0 -39 3 -77t7 -66t14 -28q60 0 119 47t107 115t77 142t29 126q0 44 -16 90t-45 84t-70 61t-91 23q-42 0 -86 -20q-10 -6 -18 -37t-13 -75t-9 -96t-5 -99t-2 -83t-1 -48v-59z" />
<glyph unicode="E" d="M52 674q0 74 5 170t19 193t41 186t73 151q14 18 56 38t99 38t123 34t127 27t111 18t76 7q30 0 57 -13t46 -35t30 -49t11 -57q0 -26 -7 -44t-21 -40q-20 -26 -84 -62t-139 -71t-144 -63t-97 -40q-8 -46 -17 -93t-13 -95q62 32 140 60t148 28q142 0 142 -140q0 -34 -13 -60 t-34 -46t-48 -35t-53 -29q-64 -34 -134 -59t-140 -49q-4 -16 -8 -35t-4 -37q0 -28 4 -56l8 -56q24 8 77 26t111 36t112 31t80 13q30 0 56 -13t44 -34t29 -49t11 -56q0 -38 -20 -74q-20 -34 -94 -80t-164 -87t-174 -70t-124 -29q-28 0 -66 13t-76 33t-69 46t-45 50 q-8 14 -15 56t-12 98t-9 119t-7 120t-4 101t-1 64z" />
<glyph unicode="F" horiz-adv-x="826" d="M62 672q0 26 1 77t2 113t4 130t7 129t11 108t17 69q22 44 105 87t185 76t199 54t149 21q24 0 47 -3t43 -13t32 -28t12 -48q0 -76 -52 -138t-127 -111t-157 -85t-142 -60q0 -42 -2 -86t-6 -88q64 32 144 60t152 28q58 0 95 -24t37 -84q0 -66 -47 -118t-113 -92t-138 -68 t-122 -44q0 -66 -2 -131t-6 -129q-2 -32 -7 -80t-20 -93t-43 -78t-72 -33q-42 0 -72 41t-51 105t-34 143t-20 155t-8 140t-1 98z" />
<glyph unicode="G" horiz-adv-x="1066" d="M0 608q0 90 17 193t51 204t86 194t123 164t160 114t199 43q70 0 130 -27t104 -72t69 -107t25 -130v-18q0 -36 -3 -89t-19 -101t-48 -83t-90 -35q-70 0 -106 32t-36 106q0 28 2 56t2 56q0 42 -14 65t-58 23q-50 0 -90 -32t-70 -84t-52 -118t-36 -133t-20 -129t-6 -106 q0 -36 4 -83t17 -90t39 -73t68 -30q72 0 116 45t60 115q-28 4 -55 13t-50 26t-37 42t-14 59q0 62 42 97t99 53t117 23t96 5q26 0 76 -4t99 -17t85 -37t36 -62q0 -76 -41 -131t-121 -65q-18 -90 -57 -187t-100 -177t-145 -131t-192 -51q-80 0 -144 32t-116 86t-90 124 t-63 145t-37 149t-12 138z" />
<glyph unicode="H" horiz-adv-x="1092" d="M62 198q0 120 10 239t14 239q3 101 3 202v50.5v51.5q0 102 3 204q2 42 3 98t14 105t44 83t93 34q86 0 130 -45t62 -112t18 -142v-135q0 -80 -4 -157t-8 -155l214 32q2 98 4 194t8 192q2 46 4 98t16 96t47 73t99 29q56 0 91 -32t56 -78t29 -98t8 -94v-26q0 -166 -8 -333 t-20 -333q-2 -30 -4 -81t-8 -110t-16 -119t-31 -109t-54 -80t-81 -31q-42 0 -75 18t-55 47t-34 66t-12 77q0 66 4 133t12 133l-198 -20q-6 -52 -13 -125t-28 -140t-63 -115t-116 -48q-46 0 -76 21t-48 54t-26 73t-8 76z" />
<glyph unicode="I" horiz-adv-x="720" d="M-30 58q0 42 17 75t45 59t63 42t71 24q14 110 26 219t16 221q4 114 8 225t8 223q-14 -2 -26 -3t-22 -1q-28 0 -60 6t-60 21t-47 37t-19 56q0 68 57 112t136 68t161 33t132 9q28 0 74 -4t91 -18t78 -38t33 -66q0 -38 -17 -68t-45 -51t-62 -35t-66 -20q-4 -226 -17 -436 t-41 -434h12q32 0 63 -7t56 -24t40 -42t15 -61q0 -46 -29 -80t-76 -58t-105 -40t-116 -25t-110 -13t-84 -4q-24 0 -59 2t-66 12t-53 30t-22 54z" />
<glyph unicode="J" horiz-adv-x="872" d="M-52 478q0 42 9 94t31 97t57 76t89 31q58 0 87 -32t42 -79t17 -102t10 -102t21 -79t51 -32q42 0 66 36t35 85t14 99t3 78q0 112 -19 219t-47 217q-14 56 -30 114t-16 116q0 68 36 111t106 43q52 0 82 -21t60 -61q46 -62 77 -142t49 -166t26 -173t8 -161v-50 q-2 -74 -8 -158t-20 -166t-42 -157t-76 -133t-118 -92t-170 -34q-108 0 -189 46t-135 121t-80 168t-26 189z" />
<glyph unicode="K" horiz-adv-x="1076" d="M52 200v16q0 118 13 237t17 239q4 158 10 316t16 316q2 36 12 70t30 61t49 43t69 16q62 0 93 -44t43 -106q11 -57 11 -118v-10q-1 -66 -1 -110q0 -126 -6 -252q58 48 113 110t97 126q26 38 60 105t74 130t88 110t102 47q58 0 85 -33t27 -87q0 -80 -25 -164t-67 -165 t-95 -154t-107 -127q56 -94 106 -189t100 -191q18 -32 35 -70t31 -78t23 -80t9 -76q0 -56 -28 -91t-86 -35q-46 0 -85 28t-72 69t-58 87t-41 80q-42 84 -83 168t-81 170l-120 -74v-23q0 -46 -6 -93q-8 -58 -12 -116q-4 -40 -13 -87t-29 -88t-54 -69t-84 -28q-46 0 -76 19 t-49 49t-27 68t-8 78z" />
<glyph unicode="L" horiz-adv-x="1004" d="M62 604q0 50 3 121t9 152t16 165t23 159t32 135t41 94q38 54 96 54q40 0 68 -27t45 -70t26 -96t13 -105t4 -96v-70q0 -156 -7 -309t-7 -309v-78q90 28 196 53t202 25q34 0 69 -4t62 -17t44 -38t17 -67q0 -50 -41 -94t-106 -80t-145 -63t-158 -46t-147 -29t-109 -10 q-38 0 -81 7t-71 31q-16 12 -28 54t-23 100t-19 125t-13 131t-8 118t-3 84z" />
<glyph unicode="M" horiz-adv-x="1526" d="M72 584q0 60 7 151t23 191t42 200t63 179t86 129t113 50q30 0 64 -34t68 -89t66 -123t61 -137t51 -132t36 -107q16 48 40 112t53 133t64 136t73 120t77 86t79 33q70 0 120 -52t84 -135t54 -186t31 -204t14 -189t3 -142v-60q0 -38 -1 -86t-5 -102t-10 -108 q-6 -52 -17 -102t-27 -89t-41 -62t-57 -23t-58 49t-49 130t-42 183t-34 207t-25 205t-16 174q-12 -76 -28 -170t-38 -191t-48 -190t-56 -166t-64 -117t-72 -44q-34 0 -68 46t-66 121t-60 167t-52 185t-42 176t-28 139q0 -42 -1 -93t-1 -73q0 -10 -1 -66t-7 -134t-18 -167 t-35 -165t-57 -128t-84 -56q-40 18 -67 61t-45 101t-28 124t-16 129t-7 117t-1 88z" />
<glyph unicode="N" horiz-adv-x="1296" d="M62 534q0 46 4 135t17 197t34 222t55 207t82 152t112 59q62 0 111 -48t87 -114t64 -138t44 -120q34 -94 66 -187t62 -189q2 -4 8 -22t14 -40q8 -24 20 -54q0 26 -1 37t-1 20v23v44q-2 66 -3 132t-1 130q0 28 1 78t6 107t15 115t29 105t48 77t71 30q50 0 86 -38t60 -97 t38 -132t22 -143t10 -130t2 -94q0 -44 -4 -125t-15 -178t-31 -198t-52 -183t-78 -135t-110 -53q-60 0 -110 35t-90 86t-70 109t-50 106q-42 102 -84 201t-80 201v-56q0 -86 -1 -171t-13 -169q-4 -34 -9 -79t-15 -89t-29 -82t-51 -56q-18 -10 -33 -12t-33 -6h-6q-46 0 -78 31 t-54 80t-35 110t-20 120t-9 109t-2 80z" />
<glyph unicode="O" horiz-adv-x="1076" d="M40 684q0 140 31 284t95 260t162 190t234 74q132 0 221 -71t142 -184t76 -253t23 -280q0 -156 -31 -295t-94 -245t-158 -168t-223 -62q-122 0 -212 61t-149 164t-88 239t-29 286zM398 708q0 -70 9 -140t27 -126t45 -90t65 -34q44 0 70 44t41 106t20 128t5 110 q0 54 -7 114t-23 111t-42 85t-66 34q-38 0 -65 -30t-45 -79t-26 -110t-8 -123z" />
<glyph unicode="P" horiz-adv-x="976" d="M62 496v97q0 71 1 162t3 190t6 184t9 145t13 70q2 2 12 9t22 14t22 13t14 8q92 52 202 90t218 38q92 0 167 -37t128 -98t81 -142t28 -167q0 -108 -47 -212t-125 -187t-178 -136t-206 -59q-2 -36 -3 -91t-7 -115t-17 -120t-32 -108t-54 -78t-81 -30q-56 0 -89 37t-50 89 t-23 109t-8 97q-4 58 -5 114t-1 114zM414 1080q6 -70 11 -136q3 -37 3 -75q0 -30 -2 -61q32 16 70 37t70 47t54 59t22 75q0 40 -19 70t-63 30q-38 0 -76 -15t-70 -31z" />
<glyph unicode="Q" horiz-adv-x="1090" d="M40 684q0 140 31 284t95 260t162 190t234 74q132 0 221 -71t142 -184t76 -253t23 -280q0 -124 -20 -237t-60 -209l12 -16q20 -28 44 -71t37 -88q11 -39 11 -74v-11q-2 -40 -34 -64q-21 -15 -44 -15h-8q-28 3 -57 18t-59 40t-58 55q-54 -46 -121 -72t-149 -26 q-122 0 -212 61t-149 164t-88 239t-29 286zM398 708q0 -70 9 -140t27 -126t45 -90t65 -34q16 0 28 6q-20 34 -34 70t-18 69t5 62t37 49q22 16 50 12t60 -24q4 40 6 78t2 66q0 54 -7 114t-23 111t-42 85t-66 34q-38 0 -65 -30t-45 -79t-26 -110t-8 -123z" />
<glyph unicode="R" horiz-adv-x="1046" d="M62 370q0 94 4 185t4 185q0 86 -3 172t-3 174v51q0 31 3 64t7 63t14 48q20 42 91 80t156 67t166 46t121 17q102 0 180 -38t130 -103t78 -150t26 -179q0 -138 -64 -248t-170 -194q32 -48 66 -112t61 -135t44 -142t17 -131q0 -64 -31 -115t-105 -51q-62 0 -107 60t-80 143 t-64 169t-55 138q-36 -12 -70 -27t-70 -29q-2 -44 -7 -121t-22 -153t-51 -132t-94 -56q-66 0 -102 54t-51 128t-17 151t-2 121zM408 1084q6 -126 6 -252v-62q42 14 86 36t81 54t61 72t24 92t-24 79t-78 27q-40 0 -81 -14t-75 -32z" />
<glyph unicode="S" horiz-adv-x="724" d="M10 58q0 46 22 85t54 75t71 70t71 68t54 71t22 79q0 58 -41 119t-91 126t-91 133t-41 138q0 86 46 181t118 174t162 131t178 52q70 0 120 -42t50 -114q0 -46 -29 -80t-69 -56q-36 -22 -74 -47t-70 -56t-52 -69t-20 -86q0 -42 20 -76t49 -67t64 -68t64 -78t49 -97t20 -126 q0 -50 -21 -113t-57 -127t-85 -124t-104 -107t-115 -76t-116 -29q-62 0 -110 34t-48 102z" />
<glyph unicode="T" horiz-adv-x="762" d="M-102 1206q0 60 47 105t120 78t162 56t176 36t160 19t113 6q38 0 81 -3t81 -17t63 -42t25 -78t-39 -91t-94 -72t-113 -51t-96 -28q-16 -154 -25 -307t-9 -307q0 -82 4 -162t4 -160q0 -36 -7 -79t-24 -81t-47 -64t-74 -26q-52 0 -83 29t-48 71t-23 89t-6 85q-4 120 -6 241 t-2 243q0 102 1 200t1 200q-28 -4 -57 -6t-59 -2q-24 0 -63 5t-75 18t-62 36t-26 59z" />
<glyph unicode="U" horiz-adv-x="1204" d="M52 722v26q0 12 2 22q2 42 7 114t17 154t31 168t50 154t75 112t104 44q44 0 74 -26t49 -65t27 -82t8 -79q0 -54 -11 -109t-21 -109q-16 -86 -26 -172t-10 -176q0 -46 5 -112t25 -127t57 -104t101 -43q62 0 99 42t55 100t23 122t5 110q0 132 -22 261t-58 257 q-10 34 -17 68t-7 68q0 56 33 98t93 42q50 0 93 -39t77 -102t59 -141t43 -155t27 -147t11 -114q2 -20 2 -39v-41q0 -82 -8 -169t-28 -169t-55 -155t-89 -128t-130 -87t-178 -32q-150 0 -261 70t-185 179t-110 244t-36 267z" />
<glyph unicode="V" horiz-adv-x="994" d="M20 1264q0 40 4 83t20 79t45 59t81 23q44 0 81 -49t67 -127t55 -174t47 -189t42 -174t40 -129q12 40 35 117t54 169t68 189t78 176t85 129t90 50q34 0 56 -16t34 -42t17 -56t5 -58q0 -72 -18 -161t-45 -181t-58 -179t-55 -157q-16 -44 -35 -109t-44 -137t-55 -144 t-66 -129t-79 -93t-93 -36q-42 0 -81 38t-74 97t-66 132t-56 143t-42 130t-25 92q-40 156 -76 315t-36 319z" />
<glyph unicode="W" horiz-adv-x="1310" d="M52 1098q0 34 2 93t15 116t40 100t79 47h4q41 0 72 -36q32 -38 54 -101t35 -140t20 -149t9 -132q1 -30 1 -52t-1 -36l-2 -52q6 26 21 82t37 127t47 146t53 137t56 103t54 43h3q32 0 62 -40q31 -42 56 -109t45 -149t35 -159t23 -139t12 -88q2 32 10 101t22 154t35 174 t49 163t64 121t80 47q50 0 80 -33t44 -80t18 -98t4 -85q0 -120 -16 -237t-38 -231q-6 -30 -18 -97t-29 -149t-41 -170t-53 -160t-64 -119t-75 -47t-77 40t-68 101t-57 137t-45 147t-32 130t-19 89q-8 -26 -25 -83t-43 -128t-58 -145t-67 -136t-73 -102t-76 -40q-50 0 -88 44 t-64 113t-44 154t-28 168t-16 155t-8 114q-6 96 -11 188t-5 188z" />
<glyph unicode="X" horiz-adv-x="980" d="M-20 96q0 62 21 125t49 117q98 208 206 412q-22 46 -55 128t-65 172t-55 175t-23 137q0 58 28 103t92 45q36 0 67 -19t57 -48t46 -62t32 -61q34 -72 68 -143t64 -147q16 28 44 76t64 102t78 110t86 101t89 74t85 29q44 0 64 -40t20 -76q0 -44 -16 -94t-40 -101t-51 -99 t-49 -86q-46 -86 -92 -173t-98 -173q26 -44 67 -120t80 -160t68 -164t29 -132q0 -40 -22 -75t-68 -35q-54 0 -109 45t-104 107t-90 127t-65 105q-34 -44 -69 -86t-69 -86q-22 -28 -53 -67t-68 -77t-76 -64t-75 -26q-26 0 -43 11t-28 29t-16 40t-5 44z" />
<glyph unicode="Y" horiz-adv-x="890" d="M20 1298q0 36 8 79t27 80t50 62t77 25q52 0 92 -39t71 -99t53 -134t38 -146t26 -132t18 -94q8 30 27 91t46 135t62 152t74 142t83 105t90 41q30 0 50 -22t31 -52t15 -62t4 -54q0 -88 -23 -194t-59 -214t-78 -210t-78 -180q-20 -44 -49 -111t-65 -143t-77 -153t-85 -138 t-90 -100t-92 -39q-64 0 -91 47t-27 105q0 56 19 119t48 125t64 120t65 104q-40 10 -78 36t-56 62q-32 70 -66 158t-61 179t-45 182t-18 167z" />
<glyph unicode="Z" horiz-adv-x="878" d="M10 1214q0 52 34 96t89 80t124 64t139 46t133 28t107 10q116 0 190 -46t74 -168q0 -10 -19 -58t-51 -118t-73 -157t-85 -178t-86 -179t-77 -159t-59 -120t-30 -61q62 20 127 33t131 13q32 0 68 -5t67 -20t52 -40t21 -67q0 -44 -30 -79t-77 -61t-107 -44t-120 -30 t-114 -17t-90 -5q-46 0 -101 4t-105 22t-83 53t-33 99q0 44 25 119t59 154t71 152t59 115q68 126 137 251t135 253q-70 -40 -160 -73t-170 -33q-28 0 -59 8t-56 23t-41 39t-16 56z" />
<glyph unicode="[" horiz-adv-x="546" d="M82 1082v54q0 40 1 90t4 106t8 104t12 82t17 42q24 16 63 22t67 6q26 0 65 -5t75 -18t61 -37t25 -60q0 -28 -14 -49t-35 -35t-47 -21t-50 -7q-16 0 -24 2l4 -304q2 -152 2 -302q0 -154 7 -305t13 -301q54 -2 103 -23t75 -69q4 -8 8 -22t4 -22q0 -34 -28 -55t-67 -34 t-78 -18t-63 -5q-16 0 -37 2t-40 7t-36 15t-25 26q-12 20 -21 99t-17 191t-14 241t-10 248t-6 215t-2 140z" />
<glyph unicode="\" horiz-adv-x="692" d="M20 1382q0 12 2 28t7 31t15 25t26 10q26 0 62 -47t75 -120t79 -162t75 -171t61 -147t36 -93q26 -64 62 -157t70 -193t58 -194t24 -158q0 -20 -8 -50t-36 -30q-30 0 -66 44t-76 112t-79 150t-72 160t-57 140t-34 90q-26 68 -64 166t-74 201t-61 200t-25 165z" />
<glyph unicode="]" horiz-adv-x="516" d="M20 1486q0 32 22 55t53 37t65 20t58 6q36 0 82 -11t64 -47q10 -22 20 -101t18 -189t14 -237t10 -245t6 -215t2 -143v-55q0 -39 -1 -91t-4 -108t-8 -104t-12 -83t-17 -43q-24 -16 -63 -21t-67 -5t-66 5t-74 18t-61 36t-25 61q0 28 14 49t35 35t47 21t50 7h24 q-4 152 -6 303t-2 303q0 310 6 620q-30 0 -63 6t-60 19t-44 37t-17 60z" />
<glyph unicode="^" horiz-adv-x="920" d="M30 1002q0 30 21 79t56 106t78 116t88 106t88 77t75 30q28 0 72 -29t94 -75t101 -103t92 -113t67 -103t26 -75q0 -24 -17 -37t-39 -13q-34 0 -91 47t-117 109t-114 123t-80 91q-24 -34 -66 -97t-90 -126t-98 -110t-90 -47q-22 0 -39 8t-17 36z" />
<glyph unicode="_" horiz-adv-x="1002" d="M0 44q0 22 9 39t31 23q10 4 49 7t92 7t114 7t116 5t99 3t62 1h86q54 0 110 -2t108 -6t82 -12q24 -6 34 -25t10 -41q0 -40 -38 -52q-48 -14 -111 -21t-130 -10t-133 -3h-118h-99q-57 0 -116 1t-115 5t-96 12q-26 4 -36 21t-10 41z" />
<glyph unicode="`" horiz-adv-x="432" d="M62 1460q0 30 22 53t52 23t70 -27t77 -65t62 -80t25 -72q0 -16 -13 -25t-29 -9q-36 0 -75 23t-67 39l-39 26q-21 14 -40 32t-32 39t-13 43z" />
<glyph unicode="a" horiz-adv-x="970" d="M10 296q0 96 59 168t145 123t183 81t173 40q0 10 1 18t1 18q0 62 -34 100t-96 38q-50 0 -86 -17t-68 -38t-64 -38t-72 -17q-44 0 -75 28t-31 72q0 66 39 120t98 91t128 58t127 21q54 0 108 -13t102 -40t87 -66t63 -91q36 -74 58 -157t34 -170t16 -174t4 -169 q0 -36 -3 -94t-17 -113t-44 -95t-84 -40q-74 0 -114 48t-38 120q-64 -56 -145 -88t-165 -32q-58 0 -110 28t-92 72t-64 99t-24 109zM342 326q0 -28 20 -38t46 -10q44 0 94 23t88 45l-6 136q-4 0 -8 1t-8 1q-26 0 -65 -13t-75 -36t-61 -51t-25 -58z" />
<glyph unicode="b" horiz-adv-x="1068" d="M72 454v68q0 68 1 136t3 138q0 34 -1 102v47q0 49 1 104q2 83 9 170t25 159t50 118t82 48q40 0 68 -28t47 -74t30 -103t16 -114t6 -108t1 -83q0 -6 -1 -27t-1 -45v-43v-21q18 38 52 74t76 64t88 46t88 18q84 0 141 -43t91 -109t48 -143t14 -145q0 -58 -9 -131t-28 -149 t-50 -148t-76 -129t-104 -91t-137 -34q-82 0 -149 38t-115 104q-6 -54 -44 -95t-96 -41q-34 0 -57 34t-37 87t-21 117t-9 124t-2 108zM380 436q32 -46 78 -73t104 -27q44 0 73 28t46 69t24 87t7 80q0 24 -3 52t-14 52t-30 40t-49 16q-32 0 -63 -14t-59 -36t-52 -47t-42 -49z " />
<glyph unicode="c" horiz-adv-x="854" d="M20 508q0 102 28 221t86 221t149 170t217 68q78 0 135 -34t94 -89t56 -123t19 -134v-20q0 -10 -2 -20q0 -10 -2 -21t-6 -21q-18 -46 -56 -77t-90 -31q-78 0 -106 78q-4 10 -4 23t-2 27v58q-4 28 -14 44t-34 16q-34 0 -65 -43t-54 -102t-37 -121t-14 -100q0 -30 4 -73 t16 -83t33 -69t55 -29t63 21t57 49q26 24 57 50t71 26q50 0 79 -36t29 -82q0 -68 -36 -127t-90 -102t-120 -68t-126 -25q-108 0 -183 54t-121 137t-66 181t-20 186z" />
<glyph unicode="d" horiz-adv-x="994" d="M30 538q0 50 6 114t21 130t39 129t61 113t88 80t117 30q72 0 138 -42t100 -104l18 318q2 38 6 89t17 97t41 78t82 32q58 0 90 -28t47 -71t18 -93t3 -94q0 -146 -11 -290t-11 -290q0 -118 7 -234t7 -234q0 -32 -2 -77t-13 -87t-36 -72t-71 -30q-60 0 -99 45t-49 101 q-38 -72 -110 -122t-156 -50q-90 0 -155 62t-108 150t-64 184t-21 166zM310 582q0 -24 4 -71t15 -95t31 -84t54 -36q26 0 52 11t49 28t44 38t37 39v16q0 46 -2 90q-1 22 -1 44.5t1 45.5q-12 26 -28 57t-39 58t-51 45t-60 18q-36 0 -58 -22t-32 -53t-13 -67t-3 -62z" />
<glyph unicode="e" horiz-adv-x="918" d="M30 556q0 100 28 214t85 210t144 160t207 64q68 0 130 -23t108 -65t74 -100t28 -130q0 -94 -40 -176t-106 -142t-152 -97t-176 -41q8 -58 47 -84t93 -26q40 0 78 20t74 45t71 45t71 20q40 0 72 -26t32 -68q0 -68 -43 -133t-108 -116t-139 -82t-136 -31q-106 0 -189 53 t-139 135t-85 181t-29 193zM348 698q28 6 67 16t74 27t60 43t25 62q0 26 -14 54t-44 28q-44 0 -74 -23t-50 -58t-31 -75t-13 -74z" />
<glyph unicode="f" horiz-adv-x="764" d="M-72 736q0 44 29 74t70 49t86 27t79 12v32q0 98 18 210t64 208t126 159t204 63q78 0 134 -33t92 -86t52 -120t16 -135q0 -38 -7 -73t-25 -61t-48 -41t-74 -15q-50 0 -74 20t-33 49t-9 63t-3 63t-15 49t-44 20q-30 0 -49 -46t-31 -106t-16 -117t-4 -77q26 4 50 7t52 3 t58 -6t56 -19t42 -36t16 -57q0 -36 -31 -64t-74 -47t-87 -31t-70 -16q6 -138 6 -278q0 -132 -6 -260q-4 -62 -43 -102t-101 -40q-34 0 -58 13t-40 35t-25 50t-11 58q-10 120 -16 241q-4 91 -4 182v61q-14 -2 -27 -2h-27q-24 0 -58 6t-65 21t-53 37t-22 56z" />
<glyph unicode="g" horiz-adv-x="1048" d="M20 -364q0 46 33 85t85 39q32 0 61 -11t58 -25t56 -25t55 -11q74 0 124 37t80 94t45 124t21 127q-40 -46 -93 -63t-111 -17q-106 0 -180 37t-120 102t-68 151t-22 186q0 62 13 140t39 158t65 156t91 134t117 94t143 36q76 0 135 -44t69 -124q22 42 58 83t88 41 q28 0 47 -28t30 -73t17 -98t8 -104t2 -93v-62q0 -102 -3 -204t-11 -204q-6 -88 -16 -188t-32 -199t-58 -190t-95 -161t-143 -112t-200 -42q-54 0 -121 17t-126 49t-100 79t-41 109zM332 538q0 -26 4 -70t17 -86t35 -72t58 -30q54 0 94 26t67 66t41 88t14 92q0 30 -9 78 t-26 92t-43 76t-62 32q-46 0 -81 -32t-59 -77t-37 -96t-13 -87z" />
<glyph unicode="h" horiz-adv-x="1050" d="M73 335q0 32 -0.5 60.5t0.5 54.5q1 52 1 78q0 40 3 132t13 205t26 233t42 219t63 161q36 60 84 60h3q32 -2 55 -28t38 -67t25 -89t15 -95t6 -87t1 -62q0 -52 -2 -104t-6 -104q46 62 123 102t155 40q100 0 151 -55t73 -136t24 -172t2 -163q0 -34 -1 -101t-6 -140t-13 -138 t-20 -95q-16 -38 -42 -66t-70 -28q-68 0 -98 54t-40 134q-8 67 -8 143v31q1 31 1 61q0 60 -3 113q-4 80 -22 134t-66 54q-66 0 -101 -21t-50 -55t-18 -78t-7 -92q-4 -46 -6 -124t-18 -154t-53 -131t-109 -55q-44 0 -71 34t-43 88t-23 120t-8 129z" />
<glyph unicode="i" horiz-adv-x="488" d="M72 456v74v91q0 59 4 127t15 138t32 128t55 94t86 36q54 0 82 -54t42 -126t16 -143t2 -105v-59q0 -31 -2 -59q-2 -34 -2 -91t-4 -123t-13 -134t-29 -124t-53 -91t-83 -37h-4q-35 0 -60 30q-26 32 -43 83t-25 114t-12 122t-4 109zM132 1354q0 30 15 53t37 38t50 23t54 8 q38 0 70 -18t32 -62q0 -28 -15 -50t-39 -39t-52 -26t-52 -9q-40 0 -70 20t-30 62z" />
<glyph unicode="j" horiz-adv-x="540" d="M-338 -434q0 64 34 96t84 56t109 53t109 87t84 157t34 261q0 102 -4 200t-12 200q-4 58 -8 117t-4 117q0 36 10 76t30 73t51 54t75 21q50 0 83 -38t54 -97t30 -132t13 -142t4 -127v-90q0 -94 -5 -209t-24 -231t-59 -220t-112 -174q-40 -38 -94 -80t-115 -78t-123 -59 t-118 -23q-64 0 -95 35t-31 97zM140 1334q0 30 15 53t38 38t50 23t53 8q38 0 71 -19t33 -61q0 -28 -16 -51t-40 -39t-52 -25t-52 -9q-40 0 -70 20t-30 62z" />
<glyph unicode="k" horiz-adv-x="958" d="M62 330q0 148 8 296t10 296q0 34 1 89t7 119t18 130t34 119t57 86t85 33q36 0 61 -27t40 -69t22 -94t10 -103t3 -95v-70q0 -18 -1 -53t-2 -73t-1 -70t4 -46q14 0 42 27t65 69t80 89t88 89t89 69t82 27q40 0 62 -28t22 -64q0 -56 -29 -114t-70 -115t-86 -108t-79 -93 q28 -44 70 -117t80 -155t65 -160t27 -130q0 -42 -26 -77t-72 -35q-34 0 -69 29t-70 76t-67 105t-59 114t-48 105t-33 79q-26 -26 -55 -43t-57 -39q0 -42 -3 -118t-18 -150t-49 -129t-100 -55q-52 0 -80 47t-41 110t-15 128t-2 99z" />
<glyph unicode="l" horiz-adv-x="526" d="M72 718q0 38 3 110t13 156t27 171t45 158t67 116t93 45q44 0 67 -29t33 -70t12 -86t2 -77q0 -108 -9 -217t-9 -219q0 -142 9 -284t9 -286q0 -36 -4 -81t-19 -83t-45 -64t-80 -26q-48 0 -83 47t-58 120t-38 163t-22 175t-10 156t-3 105z" />
<glyph unicode="m" horiz-adv-x="1346" d="M61 636v30q0 45 2 96q3 68 11 139t26 129t47 95t75 37q52 0 85 -28t33 -84q0 -12 -1 -24t-3 -22q22 32 54 65t69 60t79 44t84 17q40 0 72 -22t56 -55t40 -71t22 -72q20 36 49 73t63 65t75 46t85 18q42 0 72 -30t52 -77t34 -106t20 -116t10 -106t2 -77v-103q0 -65 -3 -141 t-13 -153t-31 -139t-53 -102t-82 -40q-44 0 -67 37t-33 87t-11 102t-1 82q0 90 6 176t6 176v36q0 26 -4 52t-13 46t-27 20q-36 0 -58 -37t-36 -87t-20 -99t-8 -73q-4 -26 -7 -78t-8 -114t-16 -127t-28 -118t-43 -87t-64 -34q-48 0 -74 42t-38 98t-15 114t-3 90q0 34 1 66 t1 66v46q0 32 -1 71t-4 81t-9 77t-18 57t-28 22q-26 0 -48 -33t-38 -78t-25 -89t-9 -64v-12q0 -96 12 -188t12 -188q0 -56 -36 -103t-100 -47q-46 0 -76 35t-50 91t-31 123t-15 132t-5 118t-1 79q0 30 -1 88z" />
<glyph unicode="n" horiz-adv-x="956" d="M52 812q0 40 1 102t15 121t46 101t94 42q28 0 50 -18t39 -44t28 -56t17 -52q20 28 47 54t61 46t76 32t96 12q102 0 159 -49t84 -122t33 -157t6 -152q0 -34 -6 -101t-19 -148t-35 -166t-52 -155t-71 -114t-93 -44q-34 0 -54 31t-30 71t-13 81t-3 63q0 60 7 120t16 120 t16 120t7 120q0 24 -2 52t-9 53t-23 41t-42 16q-18 0 -40 -29t-41 -66t-32 -74t-13 -55q0 -44 1 -89t1 -91v-116q-2 -36 -6 -74t-12 -74q-6 -36 -18 -69t-31 -58t-45 -41t-62 -16q-40 0 -66 26t-42 67t-23 92t-10 100q-2 37 -2 69v21q1 41 1 65v94q0 76 -3 150t-3 148z" />
<glyph unicode="o" horiz-adv-x="916" d="M30 524q0 106 26 219t80 206t138 152t200 59q112 0 191 -61t127 -152t68 -199q15 -83 15 -159q0 -23 -1 -45q-6 -106 -33 -214t-79 -194t-132 -140t-190 -54q-102 0 -178 54t-128 138t-78 187t-26 203zM338 550q0 -48 9 -104t25 -103t39 -78t53 -31q32 0 55 30t37 76 t20 101t6 103q0 44 -8 97t-23 99t-38 76t-53 30t-53 -32t-38 -78t-23 -97t-8 -89z" />
<glyph unicode="p" horiz-adv-x="1038" d="M62 582v75q0 51 4 111t13 124t27 117t46 86t68 33q26 0 47 -15t36 -38t25 -49t16 -48q62 70 143 106t173 36q96 0 157 -54t96 -134t49 -171t14 -165q0 -88 -19 -193t-64 -195t-118 -150t-183 -60q-28 0 -58 4t-57 14t-49 27t-34 45l-18 -288q-2 -46 -3 -110t-16 -122 t-50 -99t-101 -41q-38 0 -64 39t-41 99t-23 134t-10 142t-2 124v82q0 134 -2 267t-2 267zM376 584q0 -14 1 -37t3 -47t5 -46t9 -34q6 -18 26 -33t44 -27t49 -18t43 -6q42 0 68 32t41 76t20 91t5 77t-5 61t-18 58t-37 44t-60 17q-48 0 -101 -31t-79 -71q-10 -16 -12 -52 t-2 -54z" />
<glyph unicode="q" horiz-adv-x="1026" d="M30 458v12q0 104 32 225t95 225t158 173t221 69q68 0 125 -28t81 -92q16 46 49 75t85 29q66 0 93 -43t27 -95q0 -22 -2 -40t-4 -38q-16 -146 -32 -290t-22 -288q-8 -138 -8 -264v-50q2 -148 2 -314q0 -40 -1 -98t-15 -112t-45 -92t-93 -38q-30 0 -51 18t-36 47t-24 65 t-15 74q-10 78 -11 155t-1 113v156v112q-46 -60 -119 -91t-145 -31q-90 0 -155 43t-107 110t-62 147t-20 156zM310 536q0 -28 5 -60t16 -61t30 -48t49 -19q26 0 61 13t69 34t60 47t36 50q6 14 10 42t7 59t5 61t2 46q0 24 -11 55t-29 60t-42 48t-48 19q-46 0 -86 -37t-70 -90 t-47 -113t-17 -106z" />
<glyph unicode="r" horiz-adv-x="864" d="M52 806q0 44 4 98t22 101t53 79t97 32q34 0 58 -22t39 -54t23 -68t10 -66q48 78 108 127t156 53h15q40 0 80 -9q47 -11 86 -36t64 -65t27 -94v-11q0 -56 -38 -87q-42 -34 -102 -36q-28 -2 -48 5t-40 15q-18 8 -36 15t-40 5q-40 -2 -71 -22t-56 -50t-43 -67t-28 -73 q-6 -24 -9 -73t-3 -105q-2 -58 -2 -110t-4 -82q-2 -32 -10 -75t-25 -81t-45 -64t-72 -26q-34 0 -59 20t-42 53t-28 77t-17 90q-6 48 -9 96t-4 91q0 22 -0.5 41.5t0.5 37.5q1 36 1 58q-2 70 -7 141t-5 141z" />
<glyph unicode="s" horiz-adv-x="666" d="M-40 112q0 56 22 87t56 49t73 28t73 25t56 39t22 68q0 42 -33 87t-73 96t-73 109t-33 128q0 86 35 159t94 127t135 85t160 31q32 0 63 -6t55 -21t39 -40t15 -63q0 -58 -39 -86t-87 -53t-87 -59t-39 -102q0 -36 17 -62t42 -47t55 -43t55 -50t42 -68t17 -98q0 -84 -43 -165 t-110 -144t-151 -101t-166 -38q-34 0 -68 5t-61 19t-45 39t-18 65z" />
<glyph unicode="t" horiz-adv-x="768" d="M-72 952q0 36 27 64t69 48t91 32t93 16q0 56 8 124t29 127t57 99t92 40q32 0 57 -19t41 -48t24 -65t8 -70q0 -40 -6 -82t-22 -104q34 4 46 5t22 1q34 0 71 -6t68 -20t51 -37t20 -55q0 -36 -29 -64t-73 -48t-94 -31t-94 -15q-12 -82 -17 -151t-11 -139q-4 -34 -7 -69 t-3 -71q0 -26 2 -61t14 -67t38 -55t72 -23q28 0 58 5t60 5q52 0 75 -36t23 -92q0 -42 -25 -73t-63 -50t-85 -29t-89 -10q-142 0 -221 37t-118 105t-47 164t-8 214q0 94 6 189t18 203q-28 0 -44 -1t-26 -1q-64 0 -111 28t-47 86z" />
<glyph unicode="u" horiz-adv-x="998" d="M40 564q0 120 28 238q6 32 23 89t44 112t62 95t77 40q40 0 64 -22t38 -55t18 -70t4 -67q0 -46 -7 -90t-15 -88q-8 -60 -15 -120t-7 -120q0 -30 3 -67t15 -71t34 -57t62 -23q52 0 83 28t46 70t19 90t4 88q0 88 -12 173t-22 173q-2 10 -2 28q0 30 10 60t28 54t44 39t58 15 q44 0 78 -31t57 -80t38 -110t24 -120t12 -111t3 -82q0 -110 -22 -218t-74 -193t-139 -137t-217 -52q-128 0 -214 51t-137 135t-72 190t-21 216z" />
<glyph unicode="v" horiz-adv-x="996" d="M10 932q0 78 28 128t110 50q32 0 58 -19t48 -53t42 -79t38 -99q18 -52 34 -108t32 -108t33 -101t45 -97q14 36 32 82t39 98t45 107t52 107q54 108 115 184t121 76q56 0 80 -34t24 -88t-18 -122t-46 -140q-52 -138 -114 -288t-134 -280q-44 -80 -98 -133t-124 -53 q-56 0 -109 57t-98 136t-78 160t-49 129q-16 54 -36 116t-36 126t-26 127t-10 119z" />
<glyph unicode="w" horiz-adv-x="1480" d="M62 894q0 50 5 96t20 82t44 57t77 21q46 0 79 -34t55 -89t36 -124t22 -140t11 -138t5 -115q12 42 34 103t48 130t57 137t62 122t61 88t58 34h2q36 0 70 -34t66 -88t60 -123t52 -140t42 -138t30 -115q2 58 6 131t15 147t30 144t47 125t69 88t95 33q56 0 83 -39t27 -95 q0 -60 -15 -160t-41 -217t-61 -236t-77 -215t-88 -157t-92 -61q-64 0 -115 68t-89 163t-63 195t-37 166q-16 -40 -43 -98t-62 -122t-75 -129t-83 -117t-86 -84t-83 -32q-54 0 -95 52t-69 136t-47 186t-29 204t-14 190t-4 142z" />
<glyph unicode="x" horiz-adv-x="904" d="M0 96q0 40 27 102t64 128t74 126t57 94q-20 36 -50 95t-57 124t-46 128t-19 105q0 46 28 74t74 28q50 0 94 -39t82 -94t67 -114t47 -97q24 36 67 98t97 122t112 104t110 44q34 0 55 -29t21 -63q0 -32 -12 -67t-30 -71t-38 -69t-36 -61q-40 -64 -79 -130t-79 -130 q18 -28 50 -78t63 -105t53 -109t22 -92q0 -36 -28 -70t-68 -34q-42 0 -85 30t-84 71t-75 86t-58 75q-26 -28 -67 -76t-88 -94t-93 -79t-82 -33q-42 0 -66 30t-24 70z" />
<glyph unicode="y" horiz-adv-x="1060" d="M32 585q-2 34 -2 66t2 61q2 44 11 115t29 139t56 115q33 43 85 43h9q38 -2 62 -33t39 -77t22 -101t9 -109q1 -36 1 -68v-31q-1 -45 -1 -69q0 -34 2 -68t14 -61t37 -43t71 -16q52 0 83 26t46 65t19 84t4 85v68q0 40 1 84t8 87t22 78t40 57t65 22q50 0 86 -39t61 -102 t40 -139t23 -151t11 -138t3 -99q0 -84 -6 -191t-23 -220t-51 -222t-89 -195t-135 -138t-192 -52q-48 0 -109 15t-115 43t-91 68t-37 92q0 20 10 40t27 35t37 24t42 9q24 0 47 -7t47 -17q26 -10 51 -18t53 -8q50 0 87 34t63 89t42 122t25 133t13 124t6 94q-70 -106 -139 -163 t-169 -57q-76 0 -133 32t-97 84t-66 119t-39 139t-17 141z" />
<glyph unicode="z" horiz-adv-x="938" d="M0 890q0 36 32 67t84 56t116 44t126 32t118 19t90 6q38 0 92 -8t105 -28t87 -54t36 -86q0 -16 -3 -29t-7 -29q-4 -14 -35 -63t-76 -116t-98 -144t-101 -145t-84 -120t-48 -70q82 22 167 37t169 15q20 0 52 -2t62 -11t52 -26t22 -47q0 -40 -33 -70t-84 -54t-116 -40 t-128 -26t-119 -15t-90 -5t-95 2t-121 15t-104 42t-44 81q0 40 28 98t72 126t98 139t106 137t98 121t72 91q-28 -6 -71 -17t-89 -21t-89 -17t-73 -7q-24 0 -54 9t-57 25t-46 38t-19 50z" />
<glyph unicode="{" horiz-adv-x="596" d="M62 724q0 34 12 61t44 43q18 8 35 34t29 56t20 60t8 48q0 76 -17 151t-17 151q0 54 16 106t48 91t77 63t105 24q62 0 104 -29t42 -97q0 -52 -33 -87t-81 -53q-28 -10 -35 -35t-7 -53q0 -52 12 -105t12 -105q0 -30 -6 -76t-20 -93t-35 -85t-53 -54q28 -10 57 -31t52 -49 t37 -61t14 -63q0 -36 -9 -75t-21 -78t-21 -81t-9 -84q0 -40 20 -71t66 -31q36 0 62 -33t26 -67q0 -38 -17 -64t-44 -41t-60 -22t-65 -7q-128 0 -182 73t-54 193q0 74 19 138t19 130q0 76 -23 112t-52 60t-52 51t-23 85z" />
<glyph unicode="|" horiz-adv-x="442" d="M102 994v65q0 47 2 107t9 124t19 117t33 87t51 34q26 0 45 -53t33 -135t22 -181t13 -191t7 -166t2 -104q2 -38 2 -76v-78q0 -22 -1 -78t-4 -128t-10 -150t-20 -143t-33 -107t-50 -42t-50 51t-33 131t-20 175t-10 184t-3 158v97q0 76 -2 151t-2 151z" />
<glyph unicode="}" horiz-adv-x="586" d="M0 1462q0 38 17 64t44 42t60 23t65 7q126 0 180 -74t54 -192q0 -76 -19 -140t-19 -130q0 -76 26 -125t78 -99q20 -20 29 -49t9 -57q0 -34 -12 -61t-46 -43q-18 -10 -33 -31t-26 -47t-18 -53t-7 -45q0 -76 18 -151t18 -151q0 -54 -16 -106t-47 -91t-76 -63t-105 -24 q-62 0 -104 29t-42 97q0 54 32 88t80 54q28 10 36 35t8 53q0 52 -13 105t-13 107q0 30 5 72t17 84t33 76t51 50q-28 8 -54 34t-48 59t-35 69t-13 64q0 36 9 75t21 79t21 81t9 85q0 38 -20 69t-66 31q-36 0 -62 33t-26 67z" />
<glyph unicode="~" horiz-adv-x="1046" d="M30 530q0 38 32 69t76 51t92 31t78 11q46 0 92 -19t94 -42t99 -42t109 -19q46 0 83 12t67 27t52 27t38 12q28 0 51 -23t23 -51q0 -20 -9 -34t-23 -24q-22 -16 -61 -35t-84 -35t-88 -27t-69 -11q-56 0 -104 20t-91 44t-83 44t-78 20q-36 0 -65 -13t-54 -29t-47 -29 t-44 -13q-32 0 -59 22t-27 56z" />
<glyph unicode="&#xa2;" horiz-adv-x="868" d="M30 642q0 216 102 370t296 252q2 2 6 19t9 38t9 41t6 26q26 64 86 64q26 0 47 -13t21 -41t-9 -61t-9 -53v-2q60 -12 102 -54t69 -97t40 -117t13 -116q0 -56 -40 -98t-98 -42q-34 0 -60 17t-36 51q-6 20 -5 49t-2 56t-16 46t-49 19q-52 0 -95 -36t-73 -89t-47 -111 t-17 -100q0 -38 11 -88t34 -94t57 -75t82 -31q36 0 66 22t57 49t55 50t62 23q44 0 69 -33t25 -73q0 -54 -31 -109t-79 -99t-105 -71t-109 -27q-4 0 -6 -11t-2 -13q-2 -16 -3 -37t-9 -37q-10 -22 -33 -31t-47 -9q-22 0 -46 12t-24 40q0 24 4 48t4 50v13q0 9 -4 13 q-140 92 -209 207t-69 293z" />
<glyph unicode="&#xa3;" horiz-adv-x="1072" d="M-20 740q0 40 22 60t54 29t68 11t64 2q2 112 25 204t74 158t133 103t202 37q60 0 132 -21t133 -60t102 -95t41 -128q0 -20 -10 -39t-27 -34t-37 -24t-40 -9q-38 0 -58 20t-42 48q-40 48 -92 82t-116 34q-46 0 -77 -23t-50 -59t-28 -78t-9 -80v-32q26 -2 83 -6t114 -15 t100 -32t43 -57q0 -24 -14 -42t-36 -31t-50 -20t-58 -11q-70 -10 -158 -6q2 -30 4 -56q2 -22 3 -47t3 -39q2 -34 3 -66t5 -66q28 -6 64 -12t74 -12t74 -10t64 -4q40 0 79 8t79 8t74 -23t34 -71q0 -38 -38 -64t-89 -41t-104 -21t-81 -6q-36 0 -67 8t-60 17t-58 17t-63 8 q-40 0 -77 -9t-72 -19t-68 -19t-61 -9q-58 0 -90 42t-32 98q0 24 16 44t40 34t51 23t47 15q12 36 14 68t2 68q0 68 -16 138q-24 0 -65 5t-80 18t-68 34t-29 55z" />
<glyph unicode="&#xa5;" horiz-adv-x="1086" d="M0 1294q0 38 23 59t61 21q46 0 109 -38t128 -91t123 -106t94 -83q34 28 98 84t134 111t135 97t101 42q34 0 57 -25t23 -59q0 -36 -24 -79t-62 -90t-85 -94t-93 -88t-87 -75t-65 -52v-110q16 0 48 -1t64 -7t56 -21t24 -41q0 -22 -16 -32t-38 -14q-68 -14 -134 -16l-4 -90 q26 -4 69 -7t69 -13q40 -14 40 -48q0 -24 -15 -39t-39 -19q-30 -6 -62 -8t-62 -4q-2 -44 -2 -98t-13 -101t-45 -79t-94 -32q-46 0 -74 22t-43 55t-20 73t-5 76q0 42 6 82q-32 2 -73 6t-71 14q-44 16 -44 56q0 24 16 36t40 16q32 4 67 5t67 1l8 96l-81 9q-45 5 -79 15 q-20 6 -32 18t-12 34q0 26 20 36t42 14q34 4 73 5t77 3l4 86q-48 40 -117 96t-132 121t-108 135t-45 136z" />
<glyph unicode="&#xa8;" horiz-adv-x="782" d="M62 1304q0 60 36 102t98 42q60 0 99 -41t39 -101q0 -58 -39 -92t-97 -34q-56 0 -96 33t-40 91zM448 1314q0 60 37 102t99 42q60 0 98 -41t38 -101q0 -58 -38 -92t-96 -34q-56 0 -97 33t-41 91z" />
<glyph unicode="&#xa9;" horiz-adv-x="1172" d="M40 892q0 120 43 233t120 202t183 143t230 54q116 0 210 -46t162 -124t105 -180t37 -212q0 -118 -43 -232t-120 -202t-182 -142t-229 -54q-116 0 -211 46t-163 124t-105 179t-37 211zM178 906q0 -82 28 -159t78 -136t121 -94t159 -35q94 0 173 41t136 107t89 152t32 176 q0 82 -27 158t-78 135t-122 94t-157 35q-94 0 -174 -41t-137 -108t-89 -152t-32 -173zM284 904q0 70 25 141t70 128t108 92t139 35q100 0 150 -64t50 -156q0 -44 -27 -76t-71 -32q-60 0 -77 23t-19 52t-4 52t-32 23q-34 0 -56 -26t-36 -62t-19 -74t-5 -62q0 -26 3 -52 t12 -48t28 -36t49 -14q46 0 89 14t89 14q22 0 43 -13t21 -39q0 -30 -26 -55t-62 -43t-75 -27t-63 -9q-144 0 -224 86t-80 228z" />
<glyph unicode="&#xab;" horiz-adv-x="760" d="M20 322q0 20 21 56t54 77t74 83t81 76t75 55t57 21q20 0 26 -10t6 -26q0 -36 -23 -83t-55 -93t-67 -89t-59 -69q22 -24 54 -61t62 -79t51 -84t21 -74q0 -12 -5 -25t-21 -13q-18 0 -51 20t-72 52t-80 70t-74 76t-54 70t-21 50zM326 310q0 22 21 58t54 77t74 83t81 76 t75 55t57 21q18 0 24 -11t6 -27q0 -36 -23 -83t-54 -93t-66 -88t-59 -68q22 -24 54 -61t61 -79t50 -84t21 -74q0 -12 -4 -25t-20 -13q-18 0 -51 20t-72 52t-80 70t-74 76t-54 69t-21 49z" />
<glyph unicode="&#xad;" horiz-adv-x="920" d="M40 510q0 34 57 54t132 29t148 11t107 2q20 0 57 -2t80 -7t89 -13t83 -18t61 -24t24 -32t-29 -29t-75 -19t-101 -13t-105 -7t-90 -3t-56 -1q-20 0 -82 1t-129 7t-119 21t-52 43z" />
<glyph unicode="&#xae;" horiz-adv-x="1172" d="M40 902q0 118 43 231t120 202t183 143t230 54q116 0 210 -46t162 -124t105 -179t37 -211q0 -118 -43 -232t-120 -202t-182 -142t-229 -54q-116 0 -211 46t-163 124t-105 179t-37 211zM178 914q0 -82 28 -159t78 -136t121 -94t159 -35q94 0 173 41t136 108t89 153t32 174 q0 82 -27 159t-78 136t-122 94t-157 35q-94 0 -174 -41t-137 -108t-89 -153t-32 -174zM348 744q0 52 8 102t8 102q0 46 -3 93t-3 93v25q0 15 4 25q8 14 47 29t85 27t90 19t60 7q86 0 148 -48t62 -140q0 -60 -37 -105t-83 -73q14 -18 30 -42t30 -51t24 -55t10 -52 q0 -34 -24 -52t-58 -18q-22 0 -39 11t-29 29t-20 38t-14 38q-10 22 -20 42t-24 40l-72 -24q-2 -24 -5 -55t-13 -58t-30 -46t-52 -19q-54 0 -67 38t-13 80zM528 1090q2 -32 3 -63t-1 -65q18 4 40 13t43 22t35 31t14 40q0 24 -14 33t-40 9q-20 0 -41 -6t-39 -14z" />
<glyph unicode="&#xb4;" horiz-adv-x="420" d="M62 1294q0 30 23 73t57 84t72 70t70 29q28 0 51 -23t23 -53q0 -22 -12 -43t-29 -39t-37 -33l-36 -27q-14 -10 -31 -23t-36 -24t-38 -19t-37 -8q-16 0 -28 9t-12 27z" />
<glyph unicode="&#xb8;" horiz-adv-x="700" d="M62 -398q0 32 24 54t54 22q24 0 42 -15t38 -33t48 -33t74 -15q40 0 76 26t36 70q0 30 -21 50t-48 36t-56 31t-43 35q-16 22 -16 64v70v53q0 31 8 59t24 47t50 19q20 0 37 -9t23 -27q10 -30 14 -64t4 -64q0 -12 -1 -27t-5 -25q32 -12 70 -33t70 -50t53 -64t21 -73 q0 -58 -28 -108t-72 -88t-99 -60t-109 -22q-40 0 -81 7t-76 25t-63 46t-42 70q-6 12 -6 26z" />
<glyph unicode="&#xbb;" horiz-adv-x="754" d="M40 26q0 32 22 74t53 83t65 77t56 60q-22 28 -55 71t-63 90t-51 93t-21 82q0 16 5 28t25 12q22 0 56 -22t73 -57t79 -79t72 -86t52 -78t20 -58q0 -18 -22 -49t-56 -67t-76 -73t-82 -68t-73 -50t-51 -19q-16 0 -22 12t-6 24zM346 28q0 32 22 74t53 83t64 77l55 60 q-22 28 -54 71t-62 90t-52 93t-22 82q0 16 6 28t24 12q22 0 56 -22t74 -57t80 -79t72 -86t52 -78t20 -58q0 -26 -47 -80t-108 -109t-121 -96t-86 -41q-16 0 -21 12t-5 24z" />
<glyph unicode="&#xc0;" horiz-adv-x="1140" d="M52 292q0 114 18 225t42 221q12 58 32 136t49 161t68 164t89 145t114 104t142 40q76 0 132 -34t98 -90t70 -127t47 -144t32 -143t23 -124q26 -130 44 -263t18 -267q0 -40 -7 -96t-27 -107t-54 -86t-90 -35q-74 0 -111 54t-53 129t-19 153t-5 124q-144 -24 -284 -42 q-4 -46 -17 -114t-40 -131t-70 -109t-105 -46q-48 0 -75 35t-41 83t-17 99t-3 85zM448 694q120 10 236 30v58q0 24 -3 79t-13 110t-31 98t-57 43q-20 0 -38 -27t-32 -68t-25 -91t-19 -96t-12 -83t-6 -53zM430 1808q0 30 22 53t52 23t70 -27t77 -65t62 -80t25 -72 q0 -16 -13 -25t-29 -9q-36 0 -75 23t-67 39l-39 26q-21 14 -40 32t-32 39t-13 43z" />
<glyph unicode="&#xc2;" horiz-adv-x="1140" d="M52 292q0 114 18 225t42 221q12 58 32 136t49 161t68 164t89 145t114 104t142 40q76 0 132 -34t98 -90t70 -127t47 -144t32 -143t23 -124q26 -130 44 -263t18 -267q0 -40 -7 -96t-27 -107t-54 -86t-90 -35q-74 0 -111 54t-53 129t-19 153t-5 124q-144 -24 -284 -42 q-4 -46 -17 -114t-40 -131t-70 -109t-105 -46q-48 0 -75 35t-41 83t-17 99t-3 85zM448 694q120 10 236 30v58q0 24 -3 79t-13 110t-31 98t-57 43q-20 0 -38 -27t-32 -68t-25 -91t-19 -96t-12 -83t-6 -53zM348 1616q0 30 26 76t64 88t80 72t74 30t74 -29t79 -69t63 -84 t26 -76q0 -16 -6 -20t-20 -4q-24 0 -53 12t-58 30t-56 38t-45 36q-20 -16 -47 -38t-57 -41t-60 -32t-56 -13q-10 0 -19 4t-9 20z" />
<glyph unicode="&#xc6;" horiz-adv-x="1692" d="M52 316q0 86 14 207t43 254t75 264t109 235t145 169t186 65q164 0 270 -112q8 -8 35 -11t60 -4t63 0t46 1h76q50 0 108 -3t118 -12t109 -27t80 -47t31 -73q0 -52 -37 -80t-83 -38q-116 -26 -245 -28t-247 -8q10 -46 19 -93t13 -93q0 -10 1 -25t1 -27q0 -16 2 -30 q50 -2 92 -4q36 -2 70 -3t46 -1q44 0 90 1t92 -9q48 -10 75 -45t27 -83q0 -30 -13 -54t-43 -32q-28 -8 -69 -14t-84 -10t-85 -8t-74 -6q-4 0 -20 -2t-34 -5t-32 -7t-14 -10q0 -16 1 -35t1 -37q0 -22 -1 -47t-1 -47q0 -2 4 -3t20 -1q108 -4 215 2t215 6h36q46 -4 74 -34 t28 -76q0 -48 -27 -78t-69 -46q-16 -6 -63 -15t-110 -19t-136 -20t-140 -18t-122 -13t-81 -5q-28 0 -54 4t-49 14t-40 28t-25 46q-10 32 -13 76t-3 91t1 92t1 79l-156 -20q-78 -10 -154 -20q-4 -30 -11 -75t-19 -92t-29 -88t-37 -65q-28 -28 -61 -54t-75 -26q-48 0 -75 35 t-41 83t-17 100t-3 86zM448 716q138 12 276 30q4 14 4 27v29q0 24 -3 79t-14 112t-32 101t-57 44q-20 0 -40 -27t-39 -68t-35 -91t-28 -97t-21 -85t-11 -54z" />
<glyph unicode="&#xc7;" horiz-adv-x="964" d="M10 618q0 84 16 184t48 201t81 195t115 166t149 116t183 44q98 0 164 -49t106 -124t56 -164t16 -169q0 -38 -9 -80t-29 -78t-52 -60t-78 -24q-70 0 -104 25t-48 63t-15 81t-3 81t-13 63t-47 25q-40 0 -70 -29t-52 -75t-37 -104t-24 -115t-13 -108t-4 -83q0 -42 3 -100 t19 -111t48 -90t92 -37q40 0 78 10t76 23t77 23t79 10q46 0 76 -37t30 -83q0 -60 -38 -115t-95 -96t-124 -67t-123 -28l-6 -24q32 -12 70 -34t70 -51t54 -64t22 -73q0 -58 -28 -108t-72 -87t-100 -59t-110 -22q-40 0 -81 7t-76 24t-63 45t-42 70q-6 14 -6 28q0 30 25 53 t53 23q26 0 43 -15t37 -33t48 -33t74 -15q40 0 77 25t37 71q0 30 -21 50t-49 36t-56 30t-42 34q-18 24 -17 65t1 69v10q-104 32 -175 104t-116 167t-65 205t-20 218z" />
<glyph unicode="&#xc8;" d="M52 674q0 74 5 170t19 193t41 186t73 151q14 18 56 38t99 38t123 34t127 27t111 18t76 7q30 0 57 -13t46 -35t30 -49t11 -57q0 -26 -7 -44t-21 -40q-20 -26 -84 -62t-139 -71t-144 -63t-97 -40q-8 -46 -17 -93t-13 -95q62 32 140 60t148 28q142 0 142 -140q0 -34 -13 -60 t-34 -46t-48 -35t-53 -29q-64 -34 -134 -59t-140 -49q-4 -16 -8 -35t-4 -37q0 -28 4 -56l8 -56q24 8 77 26t111 36t112 31t80 13q30 0 56 -13t44 -34t29 -49t11 -56q0 -38 -20 -74q-20 -34 -94 -80t-164 -87t-174 -70t-124 -29q-28 0 -66 13t-76 33t-69 46t-45 50 q-8 14 -15 56t-12 98t-9 119t-7 120t-4 101t-1 64zM288 1808q0 30 22 53t52 23t70 -27t77 -65t62 -80t25 -72q0 -16 -13 -25t-29 -9q-36 0 -75 23t-67 39l-39 26q-21 14 -40 32t-32 39t-13 43z" />
<glyph unicode="&#xc9;" d="M52 674q0 74 5 170t19 193t41 186t73 151q14 18 56 38t99 38t123 34t127 27t111 18t76 7q30 0 57 -13t46 -35t30 -49t11 -57q0 -26 -7 -44t-21 -40q-20 -26 -84 -62t-139 -71t-144 -63t-97 -40q-8 -46 -17 -93t-13 -95q62 32 140 60t148 28q142 0 142 -140q0 -34 -13 -60 t-34 -46t-48 -35t-53 -29q-64 -34 -134 -59t-140 -49q-4 -16 -8 -35t-4 -37q0 -28 4 -56l8 -56q24 8 77 26t111 36t112 31t80 13q30 0 56 -13t44 -34t29 -49t11 -56q0 -38 -20 -74q-20 -34 -94 -80t-164 -87t-174 -70t-124 -29q-28 0 -66 13t-76 33t-69 46t-45 50 q-8 14 -15 56t-12 98t-9 119t-7 120t-4 101t-1 64zM430 1662q0 30 23 73t57 84t72 70t70 29q28 0 51 -23t23 -53q0 -22 -12 -43t-29 -39t-37 -33l-36 -27q-14 -10 -31 -23t-36 -24t-38 -19t-37 -8q-16 0 -28 9t-12 27z" />
<glyph unicode="&#xca;" d="M52 674q0 74 5 170t19 193t41 186t73 151q14 18 56 38t99 38t123 34t127 27t111 18t76 7q30 0 57 -13t46 -35t30 -49t11 -57q0 -26 -7 -44t-21 -40q-20 -26 -84 -62t-139 -71t-144 -63t-97 -40q-8 -46 -17 -93t-13 -95q62 32 140 60t148 28q142 0 142 -140q0 -34 -13 -60 t-34 -46t-48 -35t-53 -29q-64 -34 -134 -59t-140 -49q-4 -16 -8 -35t-4 -37q0 -28 4 -56l8 -56q24 8 77 26t111 36t112 31t80 13q30 0 56 -13t44 -34t29 -49t11 -56q0 -38 -20 -74q-20 -34 -94 -80t-164 -87t-174 -70t-124 -29q-28 0 -66 13t-76 33t-69 46t-45 50 q-8 14 -15 56t-12 98t-9 119t-7 120t-4 101t-1 64zM288 1616q0 30 26 76t64 88t80 72t74 30t74 -29t79 -69t63 -84t26 -76q0 -16 -6 -20t-20 -4q-24 0 -53 12t-58 30t-56 38t-45 36q-20 -16 -47 -38t-57 -41t-60 -32t-56 -13q-10 0 -19 4t-9 20z" />
<glyph unicode="&#xcb;" d="M52 674q0 74 5 170t19 193t41 186t73 151q14 18 56 38t99 38t123 34t127 27t111 18t76 7q30 0 57 -13t46 -35t30 -49t11 -57q0 -26 -7 -44t-21 -40q-20 -26 -84 -62t-139 -71t-144 -63t-97 -40q-8 -46 -17 -93t-13 -95q62 32 140 60t148 28q142 0 142 -140q0 -34 -13 -60 t-34 -46t-48 -35t-53 -29q-64 -34 -134 -59t-140 -49q-4 -16 -8 -35t-4 -37q0 -28 4 -56l8 -56q24 8 77 26t111 36t112 31t80 13q30 0 56 -13t44 -34t29 -49t11 -56q0 -38 -20 -74q-20 -34 -94 -80t-164 -87t-174 -70t-124 -29q-28 0 -66 13t-76 33t-69 46t-45 50 q-8 14 -15 56t-12 98t-9 119t-7 120t-4 101t-1 64zM206 1754q0 60 36 102t98 42q60 0 99 -41t39 -101q0 -58 -39 -92t-97 -34q-56 0 -96 33t-40 91zM592 1764q0 60 37 102t99 42q60 0 98 -41t38 -101q0 -58 -38 -92t-96 -34q-56 0 -97 33t-41 91z" />
<glyph unicode="&#xce;" horiz-adv-x="720" d="M-30 58q0 42 17 75t45 59t63 42t71 24q14 110 26 219t16 221q4 114 8 225t8 223q-14 -2 -26 -3t-22 -1q-28 0 -60 6t-60 21t-47 37t-19 56q0 68 57 112t136 68t161 33t132 9q28 0 74 -4t91 -18t78 -38t33 -66q0 -38 -17 -68t-45 -51t-62 -35t-66 -20q-4 -226 -17 -436 t-41 -434h12q32 0 63 -7t56 -24t40 -42t15 -61q0 -46 -29 -80t-76 -58t-105 -40t-116 -25t-110 -13t-84 -4q-24 0 -59 2t-66 12t-53 30t-22 54zM144 1616q0 30 26 76t64 88t80 72t74 30t74 -29t79 -69t63 -84t26 -76q0 -16 -6 -20t-20 -4q-24 0 -53 12t-58 30t-56 38t-45 36 q-20 -16 -47 -38t-57 -41t-60 -32t-56 -13q-10 0 -19 4t-9 20z" />
<glyph unicode="&#xcf;" horiz-adv-x="720" d="M-30 58q0 42 17 75t45 59t63 42t71 24q14 110 26 219t16 221q4 114 8 225t8 223q-14 -2 -26 -3t-22 -1q-28 0 -60 6t-60 21t-47 37t-19 56q0 68 57 112t136 68t161 33t132 9q28 0 74 -4t91 -18t78 -38t33 -66q0 -38 -17 -68t-45 -51t-62 -35t-66 -20q-4 -226 -17 -436 t-41 -434h12q32 0 63 -7t56 -24t40 -42t15 -61q0 -46 -29 -80t-76 -58t-105 -40t-116 -25t-110 -13t-84 -4q-24 0 -59 2t-66 12t-53 30t-22 54zM62 1734q0 60 36 102t98 42q60 0 99 -41t39 -101q0 -58 -39 -92t-97 -34q-56 0 -96 33t-40 91zM448 1744q0 60 37 102t99 42 q60 0 98 -41t38 -101q0 -58 -38 -92t-96 -34q-56 0 -97 33t-41 91z" />
<glyph unicode="&#xd4;" horiz-adv-x="1076" d="M40 684q0 140 31 284t95 260t162 190t234 74q132 0 221 -71t142 -184t76 -253t23 -280q0 -156 -31 -295t-94 -245t-158 -168t-223 -62q-122 0 -212 61t-149 164t-88 239t-29 286zM398 708q0 -70 9 -140t27 -126t45 -90t65 -34q44 0 70 44t41 106t20 128t5 110 q0 54 -7 114t-23 111t-42 85t-66 34q-38 0 -65 -30t-45 -79t-26 -110t-8 -123zM328 1616q0 30 26 76t64 88t80 72t74 30t74 -29t79 -69t63 -84t26 -76q0 -16 -6 -20t-20 -4q-24 0 -53 12t-58 30t-56 38t-45 36q-20 -16 -47 -38t-57 -41t-60 -32t-56 -13q-10 0 -19 4t-9 20z " />
<glyph unicode="&#xd9;" horiz-adv-x="1204" d="M52 722v26q0 12 2 22q2 42 7 114t17 154t31 168t50 154t75 112t104 44q44 0 74 -26t49 -65t27 -82t8 -79q0 -54 -11 -109t-21 -109q-16 -86 -26 -172t-10 -176q0 -46 5 -112t25 -127t57 -104t101 -43q62 0 99 42t55 100t23 122t5 110q0 132 -22 261t-58 257 q-10 34 -17 68t-7 68q0 56 33 98t93 42q50 0 93 -39t77 -102t59 -141t43 -155t27 -147t11 -114q2 -20 2 -39v-41q0 -82 -8 -169t-28 -169t-55 -155t-89 -128t-130 -87t-178 -32q-150 0 -261 70t-185 179t-110 244t-36 267zM452 1808q0 30 22 53t52 23t70 -27t77 -65t62 -80 t25 -72q0 -16 -13 -25t-29 -9q-36 0 -75 23t-67 39l-39 26q-21 14 -40 32t-32 39t-13 43z" />
<glyph unicode="&#xdb;" horiz-adv-x="1204" d="M52 722v26q0 12 2 22q2 42 7 114t17 154t31 168t50 154t75 112t104 44q44 0 74 -26t49 -65t27 -82t8 -79q0 -54 -11 -109t-21 -109q-16 -86 -26 -172t-10 -176q0 -46 5 -112t25 -127t57 -104t101 -43q62 0 99 42t55 100t23 122t5 110q0 132 -22 261t-58 257 q-10 34 -17 68t-7 68q0 56 33 98t93 42q50 0 93 -39t77 -102t59 -141t43 -155t27 -147t11 -114q2 -20 2 -39v-41q0 -82 -8 -169t-28 -169t-55 -155t-89 -128t-130 -87t-178 -32q-150 0 -261 70t-185 179t-110 244t-36 267zM370 1638q0 30 26 76t64 88t80 72t74 30t74 -29 t79 -69t63 -84t26 -76q0 -16 -6 -20t-20 -4q-24 0 -53 12t-58 30t-56 38t-45 36q-20 -16 -47 -38t-57 -41t-60 -32t-56 -13q-10 0 -19 4t-9 20z" />
<glyph unicode="&#xdc;" horiz-adv-x="1204" d="M52 722v26q0 12 2 22q2 42 7 114t17 154t31 168t50 154t75 112t104 44q44 0 74 -26t49 -65t27 -82t8 -79q0 -54 -11 -109t-21 -109q-16 -86 -26 -172t-10 -176q0 -46 5 -112t25 -127t57 -104t101 -43q62 0 99 42t55 100t23 122t5 110q0 132 -22 261t-58 257 q-10 34 -17 68t-7 68q0 56 33 98t93 42q50 0 93 -39t77 -102t59 -141t43 -155t27 -147t11 -114q2 -20 2 -39v-41q0 -82 -8 -169t-28 -169t-55 -155t-89 -128t-130 -87t-178 -32q-150 0 -261 70t-185 179t-110 244t-36 267zM266 1754q0 60 36 102t98 42q60 0 99 -41t39 -101 q0 -58 -39 -92t-97 -34q-56 0 -96 33t-40 91zM652 1764q0 60 37 102t99 42q60 0 98 -41t38 -101q0 -58 -38 -92t-96 -34q-56 0 -97 33t-41 91z" />
<glyph unicode="&#xe0;" horiz-adv-x="970" d="M10 296q0 96 59 168t145 123t183 81t173 40q0 10 1 18t1 18q0 62 -34 100t-96 38q-50 0 -86 -17t-68 -38t-64 -38t-72 -17q-44 0 -75 28t-31 72q0 66 39 120t98 91t128 58t127 21q54 0 108 -13t102 -40t87 -66t63 -91q36 -74 58 -157t34 -170t16 -174t4 -169 q0 -36 -3 -94t-17 -113t-44 -95t-84 -40q-74 0 -114 48t-38 120q-64 -56 -145 -88t-165 -32q-58 0 -110 28t-92 72t-64 99t-24 109zM342 326q0 -28 20 -38t46 -10q44 0 94 23t88 45l-6 136q-4 0 -8 1t-8 1q-26 0 -65 -13t-75 -36t-61 -51t-25 -58zM328 1500q0 30 22 53 t52 23t70 -27t77 -65t62 -80t25 -72q0 -16 -13 -25t-29 -9q-36 0 -75 23t-67 39l-39 26q-21 14 -40 32t-32 39t-13 43z" />
<glyph unicode="&#xe2;" horiz-adv-x="970" d="M10 296q0 96 59 168t145 123t183 81t173 40q0 10 1 18t1 18q0 62 -34 100t-96 38q-50 0 -86 -17t-68 -38t-64 -38t-72 -17q-44 0 -75 28t-31 72q0 66 39 120t98 91t128 58t127 21q54 0 108 -13t102 -40t87 -66t63 -91q36 -74 58 -157t34 -170t16 -174t4 -169 q0 -36 -3 -94t-17 -113t-44 -95t-84 -40q-74 0 -114 48t-38 120q-64 -56 -145 -88t-165 -32q-58 0 -110 28t-92 72t-64 99t-24 109zM342 326q0 -28 20 -38t46 -10q44 0 94 23t88 45l-6 136q-4 0 -8 1t-8 1q-26 0 -65 -13t-75 -36t-61 -51t-25 -58zM226 1310q0 30 26 76 t64 88t80 72t74 30t74 -29t79 -69t63 -84t26 -76q0 -16 -6 -20t-20 -4q-24 0 -53 12t-58 30t-56 38t-45 36q-20 -16 -47 -38t-57 -41t-60 -32t-56 -13q-10 0 -19 4t-9 20z" />
<glyph unicode="&#xe6;" horiz-adv-x="1676" d="M10 350q0 96 59 168t145 123t183 81t173 40q0 10 1 18t1 16q0 62 -34 101t-96 39q-50 0 -86 -17t-68 -37t-64 -37t-72 -17q-44 0 -75 27t-31 73q0 68 41 122t101 91t131 56t131 19q54 0 109 -12t102 -37t83 -65t54 -94t29 -110t29 -110q28 68 68 135t92 118t119 83 t149 32q66 0 123 -20t98 -58t65 -93t24 -123q0 -96 -40 -178t-106 -143t-152 -98t-178 -41q8 -58 47 -85t93 -27q40 0 78 20t74 45t71 45t71 20q40 0 71 -26t31 -66q0 -34 -14 -69t-32 -63q-30 -48 -71 -90t-91 -73t-105 -50t-113 -19q-106 0 -190 55t-140 141 q-6 -18 -19 -46t-31 -55t-40 -46t-46 -19q-74 0 -114 48t-38 120q-64 -56 -145 -89t-165 -33q-58 0 -110 28t-92 72t-64 99t-24 111zM342 378q0 -26 20 -36t46 -10q44 0 94 23t88 47l-6 132q-6 2 -16 2q-26 0 -65 -13t-75 -36t-61 -51t-25 -58zM1088 636q0 -4 1 -16t9 -12 q42 0 87 14t82 40t62 63t25 83q0 36 -19 64t-59 28q-50 0 -85 -26t-58 -65t-34 -86t-11 -87z" />
<glyph unicode="&#xe7;" horiz-adv-x="818" d="M20 510q0 66 12 140t36 146t62 138t89 116t116 80t145 30q72 0 126 -32t89 -84t53 -116t18 -128q0 -16 -1 -38t-7 -38q-16 -40 -52 -69t-82 -29q-68 0 -94 68q-6 18 -5 47t-2 56t-15 47t-42 20q-36 0 -68 -43t-56 -103t-38 -121t-14 -97q0 -26 5 -69t18 -85t36 -72 t59 -30t66 22t58 49t56 49t62 22q42 0 69 -32t27 -74q0 -52 -24 -99t-62 -85t-87 -66t-99 -40v-12q0 -12 -1 -27t-7 -25q32 -12 70 -33t70 -50t54 -64t22 -73q0 -58 -28 -108t-72 -88t-100 -60t-110 -22q-40 0 -81 7t-76 25t-63 46t-42 70q-6 12 -6 26q0 32 25 54t53 22 q26 0 43 -15t37 -33t48 -33t76 -15q40 0 76 26t36 70q0 30 -21 50t-49 36t-56 31t-42 35q-16 22 -16 64v70v26q-82 18 -138 73t-90 129t-50 158t-16 160z" />
<glyph unicode="&#xe8;" horiz-adv-x="918" d="M30 556q0 100 28 214t85 210t144 160t207 64q68 0 130 -23t108 -65t74 -100t28 -130q0 -94 -40 -176t-106 -142t-152 -97t-176 -41q8 -58 47 -84t93 -26q40 0 78 20t74 45t71 45t71 20q40 0 72 -26t32 -68q0 -68 -43 -133t-108 -116t-139 -82t-136 -31q-106 0 -189 53 t-139 135t-85 181t-29 193zM348 698q28 6 67 16t74 27t60 43t25 62q0 26 -14 54t-44 28q-44 0 -74 -23t-50 -58t-31 -75t-13 -74zM308 1522q0 30 22 53t52 23t70 -27t77 -65t62 -80t25 -72q0 -16 -13 -25t-29 -9q-36 0 -75 23t-67 39l-39 26q-21 14 -40 32t-32 39t-13 43z " />
<glyph unicode="&#xe9;" horiz-adv-x="918" d="M30 556q0 100 28 214t85 210t144 160t207 64q68 0 130 -23t108 -65t74 -100t28 -130q0 -94 -40 -176t-106 -142t-152 -97t-176 -41q8 -58 47 -84t93 -26q40 0 78 20t74 45t71 45t71 20q40 0 72 -26t32 -68q0 -68 -43 -133t-108 -116t-139 -82t-136 -31q-106 0 -189 53 t-139 135t-85 181t-29 193zM348 698q28 6 67 16t74 27t60 43t25 62q0 26 -14 54t-44 28q-44 0 -74 -23t-50 -58t-31 -75t-13 -74zM390 1376q0 30 23 73t57 84t72 70t70 29q28 0 51 -23t23 -53q0 -22 -12 -43t-29 -39t-37 -33l-36 -27q-14 -10 -31 -23t-36 -24t-38 -19 t-37 -8q-16 0 -28 9t-12 27z" />
<glyph unicode="&#xea;" horiz-adv-x="918" d="M30 556q0 100 28 214t85 210t144 160t207 64q68 0 130 -23t108 -65t74 -100t28 -130q0 -94 -40 -176t-106 -142t-152 -97t-176 -41q8 -58 47 -84t93 -26q40 0 78 20t74 45t71 45t71 20q40 0 72 -26t32 -68q0 -68 -43 -133t-108 -116t-139 -82t-136 -31q-106 0 -189 53 t-139 135t-85 181t-29 193zM348 698q28 6 67 16t74 27t60 43t25 62q0 26 -14 54t-44 28q-44 0 -74 -23t-50 -58t-31 -75t-13 -74zM266 1330q0 30 26 76t64 88t80 72t74 30t74 -29t79 -69t63 -84t26 -76q0 -16 -6 -20t-20 -4q-24 0 -53 12t-58 30t-56 38t-45 36 q-20 -16 -47 -38t-57 -41t-60 -32t-56 -13q-10 0 -19 4t-9 20z" />
<glyph unicode="&#xeb;" horiz-adv-x="918" d="M30 556q0 100 28 214t85 210t144 160t207 64q68 0 130 -23t108 -65t74 -100t28 -130q0 -94 -40 -176t-106 -142t-152 -97t-176 -41q8 -58 47 -84t93 -26q40 0 78 20t74 45t71 45t71 20q40 0 72 -26t32 -68q0 -68 -43 -133t-108 -116t-139 -82t-136 -31q-106 0 -189 53 t-139 135t-85 181t-29 193zM348 698q28 6 67 16t74 27t60 43t25 62q0 26 -14 54t-44 28q-44 0 -74 -23t-50 -58t-31 -75t-13 -74zM164 1448q0 60 36 102t98 42q60 0 99 -41t39 -101q0 -58 -39 -92t-97 -34q-56 0 -96 33t-40 91zM550 1458q0 60 37 102t99 42q60 0 98 -41 t38 -101q0 -58 -38 -92t-96 -34q-56 0 -97 33t-41 91z" />
<glyph unicode="&#xee;" horiz-adv-x="488" d="M72 456v74v91q0 59 4 127t15 138t32 128t55 94t86 36q54 0 82 -54t42 -126t16 -143t2 -105v-59q0 -31 -2 -59q-2 -34 -2 -91t-4 -123t-13 -134t-29 -124t-53 -91t-83 -37q-38 -2 -64 30t-43 83t-25 114t-12 122t-4 109zM2 1310q0 30 26 76t64 88t80 72t74 30t74 -29 t79 -69t63 -84t26 -76q0 -16 -6 -20t-20 -4q-24 0 -53 12t-58 30t-56 38t-45 36q-20 -16 -47 -38t-57 -41t-60 -32t-56 -13q-10 0 -19 4t-9 20z" />
<glyph unicode="&#xef;" horiz-adv-x="488" d="M72 456v74v91q0 59 4 127t15 138t32 128t55 94t86 36q54 0 82 -54t42 -126t16 -143t2 -105v-59q0 -31 -2 -59q-2 -34 -2 -91t-4 -123t-13 -134t-29 -124t-53 -91t-83 -37q-38 -2 -64 30t-43 83t-25 114t-12 122t-4 109zM-58 1426q0 60 36 102t98 42q60 0 99 -41t39 -101 q0 -58 -39 -92t-97 -34q-56 0 -96 33t-40 91zM328 1436q0 60 37 102t99 42q60 0 98 -41t38 -101q0 -58 -38 -92t-96 -34q-56 0 -97 33t-41 91z" />
<glyph unicode="&#xf4;" horiz-adv-x="916" d="M30 524q0 106 26 219t80 206t138 152t200 59q112 0 191 -61t127 -152t68 -199q15 -83 15 -159q0 -23 -1 -45q-6 -106 -33 -214t-79 -194t-132 -140t-190 -54q-102 0 -178 54t-128 138t-78 187t-26 203zM338 550q0 -48 9 -104t25 -103t39 -78t53 -31q32 0 55 30t37 76 t20 101t6 103q0 44 -8 97t-23 99t-38 76t-53 30t-53 -32t-38 -78t-23 -97t-8 -89zM226 1310q0 30 26 76t64 88t80 72t74 30t74 -29t79 -69t63 -84t26 -76q0 -16 -6 -20t-20 -4q-24 0 -53 12t-58 30t-56 38t-45 36q-20 -16 -47 -38t-57 -41t-60 -32t-56 -13q-10 0 -19 4 t-9 20z" />
<glyph unicode="&#xf9;" horiz-adv-x="998" d="M40 564q0 120 28 238q6 32 23 89t44 112t62 95t77 40q40 0 64 -22t38 -55t18 -70t4 -67q0 -46 -7 -90t-15 -88q-8 -60 -15 -120t-7 -120q0 -30 3 -67t15 -71t34 -57t62 -23q52 0 83 28t46 70t19 90t4 88q0 88 -12 173t-22 173q-2 10 -2 28q0 30 10 60t28 54t44 39t58 15 q44 0 78 -31t57 -80t38 -110t24 -120t12 -111t3 -82q0 -110 -22 -218t-74 -193t-139 -137t-217 -52q-128 0 -214 51t-137 135t-72 190t-21 216zM328 1460q0 30 22 53t52 23t70 -27t77 -65t62 -80t25 -72q0 -16 -13 -25t-29 -9q-36 0 -75 23t-67 39l-39 26q-21 14 -40 32 t-32 39t-13 43z" />
<glyph unicode="&#xfb;" horiz-adv-x="998" d="M40 564q0 120 28 238q6 32 23 89t44 112t62 95t77 40q40 0 64 -22t38 -55t18 -70t4 -67q0 -46 -7 -90t-15 -88q-8 -60 -15 -120t-7 -120q0 -30 3 -67t15 -71t34 -57t62 -23q52 0 83 28t46 70t19 90t4 88q0 88 -12 173t-22 173q-2 10 -2 28q0 30 10 60t28 54t44 39t58 15 q44 0 78 -31t57 -80t38 -110t24 -120t12 -111t3 -82q0 -110 -22 -218t-74 -193t-139 -137t-217 -52q-128 0 -214 51t-137 135t-72 190t-21 216zM288 1288q0 30 26 76t64 88t80 72t74 30t74 -29t79 -69t63 -84t26 -76q0 -16 -6 -20t-20 -4q-24 0 -53 12t-58 30t-56 38t-45 36 q-20 -16 -47 -38t-57 -41t-60 -32t-56 -13q-10 0 -19 4t-9 20z" />
<glyph unicode="&#xfc;" horiz-adv-x="998" d="M40 564q0 120 28 238q6 32 23 89t44 112t62 95t77 40q40 0 64 -22t38 -55t18 -70t4 -67q0 -46 -7 -90t-15 -88q-8 -60 -15 -120t-7 -120q0 -30 3 -67t15 -71t34 -57t62 -23q52 0 83 28t46 70t19 90t4 88q0 88 -12 173t-22 173q-2 10 -2 28q0 30 10 60t28 54t44 39t58 15 q44 0 78 -31t57 -80t38 -110t24 -120t12 -111t3 -82q0 -110 -22 -218t-74 -193t-139 -137t-217 -52q-128 0 -214 51t-137 135t-72 190t-21 216zM184 1406q0 60 36 102t98 42q60 0 99 -41t39 -101q0 -58 -39 -92t-97 -34q-56 0 -96 33t-40 91zM570 1416q0 60 37 102t99 42 q60 0 98 -41t38 -101q0 -58 -38 -92t-96 -34q-56 0 -97 33t-41 91z" />
<glyph unicode="&#xff;" horiz-adv-x="1060" d="M32 585q-2 34 -2 66t2 61q2 44 11 115t29 139t56 115q33 43 85 43h9q38 -2 62 -33t39 -77t22 -101t9 -109q1 -36 1 -68v-31q-1 -45 -1 -69q0 -34 2 -68t14 -61t37 -43t71 -16q52 0 83 26t46 65t19 84t4 85v68q0 40 1 84t8 87t22 78t40 57t65 22q50 0 86 -39t61 -102 t40 -139t23 -151t11 -138t3 -99q0 -84 -6 -191t-23 -220t-51 -222t-89 -195t-135 -138t-192 -52q-48 0 -109 15t-115 43t-91 68t-37 92q0 20 10 40t27 35t37 24t42 9q24 0 47 -7t47 -17q26 -10 51 -18t53 -8q50 0 87 34t63 89t42 122t25 133t13 124t6 94q-70 -106 -139 -163 t-169 -57q-76 0 -133 32t-97 84t-66 119t-39 139t-17 141zM184 1406q0 60 36 102t98 42q60 0 99 -41t39 -101q0 -58 -39 -92t-97 -34q-56 0 -96 33t-40 91zM570 1416q0 60 37 102t99 42q60 0 98 -41t38 -101q0 -58 -38 -92t-96 -34q-56 0 -97 33t-41 91z" />
<glyph unicode="&#x131;" horiz-adv-x="488" d="M72 456v74v91q0 59 4 127t15 138t32 128t55 94t86 36q54 0 82 -54t42 -126t16 -143t2 -105v-59q0 -31 -2 -59q-2 -34 -2 -91t-4 -123t-13 -134t-29 -124t-53 -91t-83 -37q-38 -2 -64 30t-43 83t-25 114t-12 122t-4 109z" />
<glyph unicode="&#x152;" horiz-adv-x="1708" d="M40 764q0 64 15 150t44 178t72 181t99 160t125 115t149 44q52 0 103 -15t94 -43t78 -68t53 -88q10 30 20 52t30 44q14 16 49 27t82 18t101 11t104 6t91 2h63q42 0 86 -2t82 -17t62 -46t24 -91q0 -40 -18 -66t-52 -44q-42 -22 -99 -38t-118 -27t-120 -17t-105 -8 q-16 -58 -20 -116l-8 -116q62 22 130 39t134 17q90 0 137 -36t47 -126q0 -70 -40 -105t-102 -51q-74 -18 -148 -34t-148 -34q-14 -42 -14 -94q0 -48 7 -96t13 -96q98 6 193 14t193 12q30 2 58 -11t48 -34t32 -49t12 -58q0 -46 -35 -81t-89 -59t-122 -40t-133 -25t-122 -12 t-89 -3q-36 0 -73 17t-69 44t-58 59t-44 60q-44 -110 -143 -167t-213 -57q-82 0 -146 44t-114 114t-86 159t-58 180t-33 176t-11 147zM370 760q0 -24 4 -66t13 -91t23 -99t34 -90t45 -66t57 -26q56 0 91 46t53 110t24 130t6 106t-6 111t-25 141t-53 122t-90 52 q-48 0 -82 -46t-55 -108t-30 -126t-9 -100z" />
<glyph unicode="&#x153;" horiz-adv-x="1566" d="M20 542q0 108 30 233t91 233t156 179t225 71q116 0 191 -59t107 -171q66 80 153 137t195 57q66 0 123 -23t100 -63t67 -96t24 -124q0 -94 -40 -176t-106 -143t-151 -97t-175 -42q8 -58 47 -84t91 -26q42 0 80 21t74 45t71 45t71 21q40 0 71 -27t31 -67q0 -70 -43 -135 t-107 -116t-138 -82t-136 -31q-90 0 -153 23t-105 60t-69 82t-47 91q-34 -54 -72 -105t-85 -90t-104 -63t-127 -24q-102 0 -167 55t-104 138t-54 178t-15 175zM324 584q0 -20 3 -58t14 -76t29 -66t48 -28q36 0 63 41t45 96t27 111t9 84q0 18 -3 55t-12 74t-26 64t-45 27 q-38 0 -67 -39t-48 -91t-28 -107t-9 -87zM998 728q28 6 67 15t74 26t60 43t25 62q0 28 -14 55t-44 27q-44 0 -75 -23t-50 -57t-29 -74t-14 -74z" />
<glyph unicode="&#x178;" horiz-adv-x="890" d="M20 1298q0 36 8 79t27 80t50 62t77 25q52 0 92 -39t71 -99t53 -134t38 -146t26 -132t18 -94q8 30 27 91t46 135t62 152t74 142t83 105t90 41q30 0 50 -22t31 -52t15 -62t4 -54q0 -88 -23 -194t-59 -214t-78 -210t-78 -180q-20 -44 -49 -111t-65 -143t-77 -153t-85 -138 t-90 -100t-92 -39q-64 0 -91 47t-27 105q0 56 19 119t48 125t64 120t65 104q-40 10 -78 36t-56 62q-32 70 -66 158t-61 179t-45 182t-18 167zM206 1776q0 60 36 102t98 42q60 0 99 -41t39 -101q0 -58 -39 -92t-97 -34q-56 0 -96 33t-40 91zM592 1786q0 60 37 102t99 42 q60 0 98 -41t38 -101q0 -58 -38 -92t-96 -34q-56 0 -97 33t-41 91z" />
<glyph unicode="&#x2c6;" horiz-adv-x="610" d="M62 1248q0 30 26 76t64 88t80 72t74 30t74 -29t79 -69t63 -84t26 -76q0 -16 -6 -20t-20 -4q-24 0 -53 12t-58 30t-56 38t-45 36q-20 -16 -47 -38t-57 -41t-60 -32t-56 -13q-10 0 -19 4t-9 20z" />
<glyph unicode="&#x2da;" horiz-adv-x="414" d="M20 1284q0 38 15 71t40 57t59 37t72 13t72 -13t60 -37t41 -57t15 -71q0 -76 -56 -127t-132 -51t-131 51t-55 127zM110 1282q0 -40 30 -67t70 -27t71 27t31 67q0 42 -31 69t-71 27t-70 -27t-30 -69z" />
<glyph unicode="&#x2dc;" horiz-adv-x="812" d="M62 1318q0 34 24 66t60 57t75 40t69 15q34 0 59 -14t47 -32t45 -32t55 -14q26 0 49 15t46 34t44 34t45 15q28 0 49 -24t21 -50q0 -30 -20 -63t-50 -60t-64 -44t-64 -17t-59 11t-58 25t-57 25t-56 11q-22 0 -44 -13t-46 -28t-49 -27t-49 -12q-32 0 -52 27t-20 55z" />
<glyph unicode="&#x2000;" horiz-adv-x="964" />
<glyph unicode="&#x2001;" horiz-adv-x="1930" />
<glyph unicode="&#x2002;" horiz-adv-x="964" />
<glyph unicode="&#x2003;" horiz-adv-x="1930" />
<glyph unicode="&#x2004;" horiz-adv-x="642" />
<glyph unicode="&#x2005;" horiz-adv-x="482" />
<glyph unicode="&#x2006;" horiz-adv-x="320" />
<glyph unicode="&#x2007;" horiz-adv-x="320" />
<glyph unicode="&#x2008;" horiz-adv-x="240" />
<glyph unicode="&#x2009;" horiz-adv-x="386" />
<glyph unicode="&#x200a;" horiz-adv-x="106" />
<glyph unicode="&#x2010;" horiz-adv-x="920" d="M40 510q0 34 57 54t132 29t148 11t107 2q20 0 57 -2t80 -7t89 -13t83 -18t61 -24t24 -32t-29 -29t-75 -19t-101 -13t-105 -7t-90 -3t-56 -1q-20 0 -82 1t-129 7t-119 21t-52 43z" />
<glyph unicode="&#x2011;" horiz-adv-x="920" d="M40 510q0 34 57 54t132 29t148 11t107 2q20 0 57 -2t80 -7t89 -13t83 -18t61 -24t24 -32t-29 -29t-75 -19t-101 -13t-105 -7t-90 -3t-56 -1q-20 0 -82 1t-129 7t-119 21t-52 43z" />
<glyph unicode="&#x2012;" horiz-adv-x="920" d="M40 510q0 34 57 54t132 29t148 11t107 2q20 0 57 -2t80 -7t89 -13t83 -18t61 -24t24 -32t-29 -29t-75 -19t-101 -13t-105 -7t-90 -3t-56 -1q-20 0 -82 1t-129 7t-119 21t-52 43z" />
<glyph unicode="&#x2013;" horiz-adv-x="1042" d="M62 510q0 22 33 39t84 27t112 16t120 9t106 4t69 1q20 0 57 -2t80 -7t89 -13t83 -18t61 -24t24 -32t-29 -29t-75 -19t-101 -13t-105 -7t-90 -3t-56 -1h-53q-39 0 -90 2t-107 6t-103 12t-78 21t-31 31z" />
<glyph unicode="&#x2014;" horiz-adv-x="1166" d="M62 510q0 22 34 39t87 27t118 16t125 9t109 4t71 1q20 0 64 -2t100 -7t115 -13t108 -18t80 -24t31 -32t-37 -29t-94 -19t-126 -13t-131 -7t-109 -3t-63 -1h-54q-40 0 -94 2t-113 6t-108 12t-81 21t-32 31z" />
<glyph unicode="&#x2018;" horiz-adv-x="408" d="M62 1172q0 32 17 82t43 98t58 82t64 34q18 0 29 -12t11 -28q0 -24 -11 -46t-24 -43t-24 -42t-9 -41q30 20 64 20q46 0 77 -37t31 -79q0 -64 -41 -104t-105 -40q-70 0 -125 39t-55 117z" />
<glyph unicode="&#x2019;" horiz-adv-x="410" d="M20 1350q0 64 42 102t106 38q72 0 126 -37t54 -115q0 -32 -17 -83t-42 -99t-57 -82t-62 -34q-40 0 -40 42q0 24 10 46t22 43t22 41t10 42q-14 -10 -31 -16t-33 -6q-46 0 -78 36t-32 82z" />
<glyph unicode="&#x201a;" horiz-adv-x="410" d="M20 120q0 64 42 103t106 39q72 0 126 -38t54 -116q0 -32 -17 -82t-42 -98t-57 -82t-62 -34q-40 0 -40 40q0 24 10 46t22 43t22 42t10 41q-30 -20 -64 -20q-46 0 -78 36t-32 80z" />
<glyph unicode="&#x201c;" horiz-adv-x="770" d="M62 1172q0 32 17 82t43 98t58 82t64 34q18 0 29 -12t11 -28q0 -24 -11 -46t-24 -43t-24 -42t-9 -41q30 20 64 20q46 0 77 -37t31 -79q0 -64 -41 -104t-105 -40q-70 0 -125 39t-55 117zM424 1170q0 32 17 83t43 99t58 82t64 34q16 0 28 -12t12 -28q0 -24 -11 -46t-24 -43 t-23 -42t-10 -41q30 20 64 20q44 0 76 -37t32 -79q0 -64 -42 -104t-104 -40q-72 0 -126 39t-54 115z" />
<glyph unicode="&#x201d;" horiz-adv-x="770" d="M20 1334q0 64 42 103t106 39q72 0 126 -37t54 -115q0 -34 -17 -85t-42 -99t-57 -82t-62 -34q-40 0 -40 44q0 22 10 44t22 43t22 41t10 40q-30 -20 -64 -20q-46 0 -78 37t-32 81zM382 1340q0 64 42 102t106 38q72 0 125 -37t53 -115q0 -32 -16 -83t-42 -99t-57 -82 t-61 -34q-40 0 -40 42q0 24 11 46t23 43t22 41t8 42q-28 -22 -64 -22q-46 0 -78 37t-32 81z" />
<glyph unicode="&#x201e;" horiz-adv-x="770" d="M20 104q0 64 42 104t106 40q72 0 126 -38t54 -116q0 -34 -17 -84t-42 -98t-57 -82t-62 -34q-40 0 -40 42q0 24 10 45t22 42t22 42t10 41q-30 -20 -64 -20q-46 0 -78 37t-32 79zM382 110q0 64 42 103t106 39q72 0 125 -38t53 -116q0 -32 -16 -82t-42 -98t-57 -82t-61 -34 q-40 0 -40 40q0 24 11 46t23 43t22 42t8 41q-30 -20 -64 -20q-46 0 -78 37t-32 79z" />
<glyph unicode="&#x2026;" horiz-adv-x="1272" d="M20 134q0 54 46 81t94 27q30 0 63 -10t62 -29t47 -46t18 -61q0 -26 -12 -47t-31 -35t-42 -22t-47 -8q-30 0 -65 11t-64 31t-49 47t-20 61zM472 134q0 54 45 81t93 27q30 0 63 -10t62 -29t47 -46t18 -61q0 -52 -42 -82t-90 -30q-30 0 -64 11t-64 31t-49 47t-19 61z M922 134q0 26 13 47t33 34t44 20t48 7q30 0 64 -10t62 -29t47 -46t19 -61q0 -52 -43 -82t-91 -30q-30 0 -64 11t-64 31t-49 47t-19 61z" />
<glyph unicode="&#x202f;" horiz-adv-x="386" />
<glyph unicode="&#x2039;" horiz-adv-x="454" d="M20 322q0 20 21 56t54 77t74 83t81 76t75 55t57 21q20 0 26 -10t6 -26q0 -36 -23 -83t-55 -93t-67 -89t-59 -69q22 -24 54 -61t62 -79t51 -84t21 -74q0 -12 -5 -25t-21 -13q-18 0 -51 20t-72 52t-80 70t-74 76t-54 70t-21 50z" />
<glyph unicode="&#x203a;" horiz-adv-x="448" d="M40 26q0 32 22 74t53 83t65 77t56 60q-22 28 -55 71t-63 90t-51 93t-21 82q0 16 5 28t25 12q22 0 56 -22t73 -57t79 -79t72 -86t52 -78t20 -58q0 -18 -22 -49t-56 -67t-76 -73t-82 -68t-73 -50t-51 -19q-16 0 -22 12t-6 24z" />
<glyph unicode="&#x205f;" horiz-adv-x="482" />
<glyph unicode="&#x20ac;" horiz-adv-x="1240" d="M0 800q0 40 23 57t57 21q38 8 76 10l76 4q20 84 66 158t110 128t143 85t167 31q28 0 76 -6t104 -17t113 -29t103 -42t75 -56t29 -70q0 -40 -28 -72t-70 -32q-34 0 -67 19t-72 41t-88 41t-115 19q-46 0 -97 -11t-94 -35t-74 -61t-35 -91q76 2 149 4t149 2q20 0 57 2t74 -3 t64 -21t27 -50q0 -28 -33 -45t-84 -28t-112 -15t-118 -5t-102 0t-63 1v-74q114 6 228 6q18 0 56 1t76 -3t67 -18t29 -46q0 -26 -28 -41t-72 -24t-96 -12t-101 -4t-88 0t-55 1q16 -90 87 -142t161 -52q84 0 143 16t99 35t69 35t53 16q36 0 66 -27t30 -65q0 -34 -28 -64 t-71 -56t-97 -47t-107 -35t-97 -22t-70 -8q-86 0 -165 32t-144 86t-112 127t-65 155q-38 0 -92 3t-88 13q-28 8 -45 27t-17 47q0 24 12 35t34 17q40 10 86 12t88 4l6 56q-40 4 -91 6t-89 10q-58 10 -58 66z" />
<glyph unicode="&#x2122;" horiz-adv-x="888" d="M-20 178q0 50 38 119t94 145q-4 22 -6 46t-2 46q0 68 14 130q-44 74 -80 154t-36 132q0 42 30 66t82 24q48 0 92 -27t82 -69q74 52 174 52q52 0 93 -14t75 -38q56 50 99 71t97 21q40 0 62 -27t22 -55q0 -56 -29 -110t-67 -102l-38 -52q16 -78 10 -142q-2 -90 -34 -184 q38 -52 66 -106t28 -90q0 -34 -29 -63t-75 -29q-40 0 -80 20t-80 48q-32 -16 -68 -26t-78 -10q-52 0 -97 17t-83 47q-54 -46 -94 -65t-84 -19q-46 0 -72 27t-26 63zM328 550q0 -34 9 -71t25 -69t39 -53t53 -21q32 0 54 20t36 52t20 68t6 70q0 32 -8 68t-23 67t-37 52t-52 21 t-53 -22t-38 -53t-23 -67t-8 -62z" />
<glyph unicode="&#xe000;" horiz-adv-x="1125" d="M0 1125h1125v-1125h-1125v1125z" />
</font>
</defs>
</svg>
