<?xml version="1.0" encoding="UTF-8" standalone="no"?>
<!-- Generator: Adobe Illustrator 12.0.1, SVG Export Plug-In  -->

<svg
   xmlns:dc="http://purl.org/dc/elements/1.1/"
   xmlns:cc="http://creativecommons.org/ns#"
   xmlns:rdf="http://www.w3.org/1999/02/22-rdf-syntax-ns#"
   xmlns:svg="http://www.w3.org/2000/svg"
   xmlns="http://www.w3.org/2000/svg"
   xmlns:sodipodi="http://sodipodi.sourceforge.net/DTD/sodipodi-0.dtd"
   xmlns:inkscape="http://www.inkscape.org/namespaces/inkscape"
   version="1.1"
   width="53.417999"
   height="53.414001"
   viewBox="-0.653 -0.146 53.417999 53.414001"
   enable-background="new -0.653 -0.146 55 55"
   xml:space="preserve"
   id="svg2"
   inkscape:version="0.47pre4 r22446"
   sodipodi:docname="Paris_m_10_jms.svg"><metadata
   id="metadata20"><rdf:RDF><cc:Work
       rdf:about=""><dc:format>image/svg+xml</dc:format><dc:type
         rdf:resource="http://purl.org/dc/dcmitype/StillImage" /></cc:Work></rdf:RDF></metadata><sodipodi:namedview
   pagecolor="#ffffff"
   bordercolor="#666666"
   borderopacity="1"
   objecttolerance="10"
   gridtolerance="10"
   guidetolerance="10"
   inkscape:pageopacity="0"
   inkscape:pageshadow="2"
   inkscape:window-width="1280"
   inkscape:window-height="728"
   id="namedview18"
   showgrid="false"
   inkscape:zoom="6.0682618"
   inkscape:cx="-25.49802"
   inkscape:cy="20.038043"
   inkscape:window-x="0"
   inkscape:window-y="25"
   inkscape:window-maximized="1"
   inkscape:current-layer="svg2" />
<defs
   id="defs4"><inkscape:perspective
   sodipodi:type="inkscape:persp3d"
   inkscape:vp_x="0 : 27.5 : 1"
   inkscape:vp_y="0 : 1000 : 0"
   inkscape:vp_z="55 : 27.5 : 1"
   inkscape:persp3d-origin="27.5 : 18.333333 : 1"
   id="perspective22" />
</defs>




<path
   d="m -0.653,26.561 c 0,-14.746 11.961,-26.707 26.703,-26.707 14.758,0 26.715,11.961 26.715,26.707 0,14.746 -11.957,26.707 -26.715,26.707 -14.742,0 -26.703,-11.961 -26.703,-26.707"
   id="path14"
   style="fill:#e0b03a" />
<path
   d="M 19.632,40.718 V 12.413 h -4.934 c -1.285,1 -4.332,2.887 -7.613,4.457 l -1.73,0.797 1.926,4.336 1.488,-0.77 c 1.035,-0.523 3.883,-2.008 4.848,-2.762 v 22.247 h 6.015 M 44.273,26.651 c 0,-6.539 -1.68,-14.797 -10.223,-14.797 -8.539,0 -10.391,8.258 -10.391,14.797 0,6.539 1.688,14.797 10.227,14.797 8.551,0 10.387,-8.258 10.387,-14.797 z m -6.129,0 c 0,2.812 -0.156,10.059 -4.176,10.059 -4,0 -4.211,-7.207 -4.211,-10.059 0,-2.895 0.121,-10.023 4.211,-10.023 4.051,0 4.176,7.054 4.176,10.023 z"
   id="path16"
   style="fill:#231f20" />
</svg>