<?xml version="1.0" encoding="utf-8"?>
<!-- Generator: Adobe Illustrator 12.0.1, SVG Export Plug-In  -->
<!DOCTYPE svg PUBLIC "-//W3C//DTD SVG 1.1//EN" "http://www.w3.org/Graphics/SVG/1.1/DTD/svg11.dtd" [
	<!ENTITY ns_flows "http://ns.adobe.com/Flows/1.0/">
	<!ENTITY ns_svg "http://www.w3.org/2000/svg">
	<!ENTITY ns_xlink "http://www.w3.org/1999/xlink">
]>
<svg  version="1.1" xmlns="&ns_svg;" xmlns:xlink="&ns_xlink;" xmlns:a="http://ns.adobe.com/AdobeSVGViewerExtensions/3.0/"
	 width="55" height="55" viewBox="-0.971 -0.69 55 55" enable-background="new -0.971 -0.69 55 55" xml:space="preserve">
<defs>
</defs>
<path fill="#89D3DE" d="M0,26.699C0,11.941,11.955,0,26.707,0s26.701,11.941,26.701,26.699c0,14.762-11.949,26.723-26.701,26.723
	S0,41.461,0,26.699"/>
<path fill="#231F20" d="M20.695,40.82V12.5h-4.932c-1.287,1-4.336,2.879-7.623,4.441l-1.725,0.801l1.928,4.359l1.484-0.762
	c1.039-0.52,3.889-2,4.848-2.758V40.82H20.695 M43.859,32.422c0-3.961-2.367-6.281-5.492-6.883v-0.078
	c3.004-1.121,4.561-3.359,4.561-6.281c0-3.801-3.283-7.16-9.053-7.16c-3.336,0-6.055,0.922-8.5,2.52l1.961,4.16
	c0.92-0.758,2.641-2.039,5.252-2.039c2.969,0,4.328,1.602,4.328,3.402c0,2.156-1.721,3.52-4.492,3.52h-2.965v4.68h2.926
	c2.895,0,5.375,1.039,5.375,4.277c0,2.402-2.039,4.203-5.336,4.203c-2.393,0-4.359-0.922-5.564-1.84l-2.168,4.359
	c2.285,1.277,4.488,2.117,8.137,2.117C39.408,41.379,43.859,37.379,43.859,32.422z"/>
</svg>
