<?xml version="1.0" encoding="utf-8"?>
<!-- Generator: Adobe Illustrator 12.0.1, SVG Export Plug-In  -->
<!DOCTYPE svg PUBLIC "-//W3C//DTD SVG 1.1//EN" "http://www.w3.org/Graphics/SVG/1.1/DTD/svg11.dtd" [
	<!ENTITY ns_flows "http://ns.adobe.com/Flows/1.0/">
	<!ENTITY ns_svg "http://www.w3.org/2000/svg">
	<!ENTITY ns_xlink "http://www.w3.org/1999/xlink">
]>
<svg  version="1.1" xmlns="&ns_svg;" xmlns:xlink="&ns_xlink;" xmlns:a="http://ns.adobe.com/AdobeSVGViewerExtensions/3.0/"
	 width="55" height="55" viewBox="-0.97 -0.697 55 55" enable-background="new -0.97 -0.697 55 55" xml:space="preserve">
<defs>
</defs>
<path fill="#89D3DE" d="M0,26.701C0,11.957,11.953,0,26.699,0C41.453,0,53.41,11.957,53.41,26.701
	c0,14.748-11.957,26.707-26.711,26.707C11.953,53.408,0,41.449,0,26.701"/>
<path fill="#231F20" d="M37.82,26.969c0-1.984-0.895-4.229-3.051-4.229c-1.031,0-1.66,0.561-2.211,1.361V19.82h-2.164v11.344h2.09
	v-0.428c0.406,0.385,1.133,0.629,1.746,0.629C36.848,31.365,37.82,28.805,37.82,26.969 M35.559,27.27
	c0,1.119-0.305,2.562-1.688,2.562c-0.98,0-1.312-0.512-1.312-1.066v-2.688c0-0.473,0.035-0.709,0.41-1.061
	c0.238-0.229,0.566-0.416,1-0.416C35.328,24.602,35.559,26.168,35.559,27.27z M41.953,20.805c0-0.668-0.461-1.137-1.199-1.137
	c-0.734,0-1.211,0.469-1.211,1.137c0,0.656,0.477,1.133,1.211,1.133C41.492,21.938,41.953,21.461,41.953,20.805z M39.672,31.164
	h2.164v-8.188h-2.164V31.164z M49.5,28.713c0-1.24-0.73-1.916-1.82-2.332l-1-0.367c-0.516-0.186-0.863-0.389-0.863-0.809
	c0-0.488,0.414-0.779,1.137-0.779c0.52,0,1.18,0.176,1.648,0.492l0.66-1.586c-0.414-0.219-1.18-0.539-2.203-0.539
	c-1.918,0-3.227,1.207-3.227,2.764c0,0.969,0.488,1.713,1.645,2.16l0.969,0.365c0.426,0.168,1.047,0.336,1.047,0.91
	c0,0.641-0.695,0.82-1.262,0.82c-0.648,0-1.387-0.244-1.91-0.611l-0.664,1.615c0.461,0.273,1.379,0.621,2.402,0.621
	C48.207,31.438,49.5,30.312,49.5,28.713z"/>
<path fill="#231F20" d="M27.395,32.238c0-3.969-2.371-6.293-5.492-6.889v-0.084c3.004-1.125,4.574-3.377,4.574-6.293
	c0-3.768-3.285-7.141-9.059-7.141c-3.328,0-6.055,0.926-8.492,2.533l1.961,4.16c0.926-0.793,2.645-2.037,5.258-2.037
	c2.953,0,4.324,1.564,4.324,3.361c0,2.164-1.73,3.531-4.492,3.531h-2.961v4.688h2.918c2.895,0,5.371,1.041,5.371,4.285
	c0,2.412-2.043,4.172-5.328,4.172c-2.406,0-4.371-0.924-5.57-1.84l-2.168,4.363c2.285,1.279,4.492,2.125,8.133,2.125
	C22.945,41.174,27.395,37.209,27.395,32.238"/>
</svg>
