<?xml version="1.0" encoding="utf-8"?>
<!-- Generator: Adobe Illustrator 12.0.1, SVG Export Plug-In  -->
<!DOCTYPE svg PUBLIC "-//W3C//DTD SVG 1.1//EN" "http://www.w3.org/Graphics/SVG/1.1/DTD/svg11.dtd" [
	<!ENTITY ns_flows "http://ns.adobe.com/Flows/1.0/">
	<!ENTITY ns_svg "http://www.w3.org/2000/svg">
	<!ENTITY ns_xlink "http://www.w3.org/1999/xlink">
]>
<svg  version="1.1" xmlns="&ns_svg;" xmlns:xlink="&ns_xlink;" xmlns:a="http://ns.adobe.com/AdobeSVGViewerExtensions/3.0/"
	 width="55" height="55" viewBox="-0.968 -0.695 55 55" enable-background="new -0.968 -0.695 55 55" xml:space="preserve">
<defs>
</defs>
<path fill="#78C696" d="M0,26.707C0,11.959,11.961,0,26.707,0s26.707,11.959,26.707,26.707c0,14.744-11.961,26.705-26.707,26.705
	S0,41.451,0,26.707"/>
<path fill="#231F20" d="M28.414,17.152v-4.617H8.617v4.729h13.734l-6.883,12.832c-2.488,4.607-3.492,7.016-3.492,10.744h6.457
	C18.434,36.383,22.191,27.932,28.414,17.152"/>
<path fill="#231F20" d="M36.539,30.76c0-1.977-0.887-4.221-3.035-4.221c-1.051,0-1.672,0.561-2.223,1.355v-4.275h-2.156v11.348
	h2.078v-0.432c0.414,0.381,1.133,0.633,1.758,0.633C35.57,35.168,36.539,32.6,36.539,30.76 M34.289,31.066
	c0,1.117-0.309,2.561-1.691,2.561c-0.98,0-1.316-0.504-1.316-1.072v-2.684c0-0.48,0.047-0.699,0.402-1.059
	c0.246-0.229,0.582-0.418,1.008-0.418C34.059,28.395,34.289,29.963,34.289,31.066z M40.684,24.592c0-0.66-0.465-1.133-1.203-1.133
	c-0.73,0-1.199,0.473-1.199,1.133c0,0.664,0.469,1.139,1.199,1.139C40.219,25.73,40.684,25.256,40.684,24.592z M38.402,34.967h2.148
	v-8.195h-2.148V34.967z M48.219,32.508c0-1.244-0.715-1.912-1.82-2.328l-1.004-0.367c-0.52-0.186-0.855-0.385-0.855-0.812
	c0-0.492,0.422-0.781,1.137-0.781c0.527,0,1.18,0.176,1.66,0.492l0.656-1.584c-0.434-0.215-1.18-0.535-2.211-0.535
	c-1.918,0-3.219,1.211-3.219,2.764c0,0.957,0.473,1.711,1.645,2.152l0.961,0.371c0.434,0.176,1.047,0.34,1.047,0.908
	c0,0.641-0.695,0.828-1.254,0.828c-0.648,0-1.402-0.248-1.926-0.615l-0.656,1.611c0.453,0.275,1.379,0.623,2.41,0.623
	C46.938,35.234,48.219,34.107,48.219,32.508z"/>
</svg>
