<?xml version="1.0" encoding="utf-8"?>
<!-- Generator: Adobe Illustrator 12.0.1, SVG Export Plug-In  -->
<!DOCTYPE svg PUBLIC "-//W3C//DTD SVG 1.1//EN" "http://www.w3.org/Graphics/SVG/1.1/DTD/svg11.dtd" [
	<!ENTITY ns_flows "http://ns.adobe.com/Flows/1.0/">
	<!ENTITY ns_svg "http://www.w3.org/2000/svg">
	<!ENTITY ns_xlink "http://www.w3.org/1999/xlink">
]>
<svg  version="1.1" xmlns="&ns_svg;" xmlns:xlink="&ns_xlink;" xmlns:a="http://ns.adobe.com/AdobeSVGViewerExtensions/3.0/"
	 width="54" height="54" viewBox="-0.461 -0.206 54 54" enable-background="new -0.461 -0.206 54 54" xml:space="preserve">
<defs>
</defs>
<path fill="#C5A3CC" d="M0,26.7C0,11.953,11.955,0,26.703,0C41.455,0,53.41,11.953,53.41,26.7c0,14.754-11.955,26.715-26.707,26.715
	C11.955,53.415,0,41.454,0,26.7"/>
<path fill="#231F20" d="M36.811,32.845c0-3.719-2.283-5.973-4.891-7.203c2.646-1.613,4.016-3.656,4.016-6.297
	c0-4.86-4.133-7.31-9.104-7.31c-4.854,0-9.102,3.255-9.102,7.942c0,2.926,1.525,4.648,3.965,6.172
	c-2.725,1.402-4.848,3.617-4.848,7.379c0,4.293,3.562,8.059,9.859,8.059C32.52,41.587,36.811,38.224,36.811,32.845 M30.52,19.7
	c0,1.77-1.604,3.402-3.088,4.09c-1.801-0.762-4.129-2.008-4.129-4.328c0-1.961,1.4-3.328,3.607-3.328
	C29.234,16.134,30.52,17.731,30.52,19.7z M30.959,33.29c0,2.246-1.484,4.133-4.172,4.133c-2.729,0-4.248-2.215-4.248-4.535
	c0-2.199,1.844-4.043,3.688-4.77C28.631,29.321,30.959,30.724,30.959,33.29z"/>
</svg>
