<?xml version="1.0" encoding="utf-8"?>
<!-- Generator: Adobe Illustrator 12.0.1, SVG Export Plug-In  -->
<!DOCTYPE svg PUBLIC "-//W3C//DTD SVG 1.1//EN" "http://www.w3.org/Graphics/SVG/1.1/DTD/svg11.dtd" [
	<!ENTITY ns_flows "http://ns.adobe.com/Flows/1.0/">
	<!ENTITY ns_svg "http://www.w3.org/2000/svg">
	<!ENTITY ns_xlink "http://www.w3.org/1999/xlink">
]>
<svg  version="1.1" xmlns="&ns_svg;" xmlns:xlink="&ns_xlink;" xmlns:a="http://ns.adobe.com/AdobeSVGViewerExtensions/3.0/"
	 width="55" height="55" viewBox="-0.973 -0.694 55 55" enable-background="new -0.973 -0.694 55 55" xml:space="preserve">
<defs>
</defs>
<path fill="#CEC82B" d="M7.827,45.59c-10.438-10.426-10.434-27.336,0-37.764c10.426-10.439,27.348-10.432,37.746,0
	c10.441,10.428,10.441,27.338,0,37.764C35.175,56.02,18.253,56.028,7.827,45.59"/>
<path fill="#231F20" d="M16.769,21.739c0,5.297,3.766,8.383,8.379,8.383c2.984,0,4.828-1.086,5.785-1.914
	c-0.359,5.68-3.32,8.531-7.195,8.531c-1.59,0-3.039-0.359-3.812-0.68l-0.883,4.812c1.172,0.273,2.613,0.484,4.219,0.484
	c8.914,0,13.434-6.742,13.434-16.57c0-7.492-2.719-12.826-10.359-12.826C20.534,11.959,16.769,16.09,16.769,21.739 M22.417,21.145
	c0-2.453,1.41-4.734,4.117-4.734c2.801,0,4.359,2.609,4.359,5.289c0,0.852,0,1.93-0.32,2.406C30.015,24.993,28.253,26,26.534,26
	C23.819,26,22.417,23.793,22.417,21.145z"/>
</svg>
