<svg xmlns="http://www.w3.org/2000/svg" viewBox="0.146 4.189 100 91.775"><path fill="#ccc" d="M99.5 38.57L51 4.6c-.52-.35-1.2-.35-1.7 0L.77 38.58c-.32.23-.54.57-.6.96-.08.4 0 .8.24 1.1L7 50.1c.3.4.76.62 1.23.62.3 0 .6-.08.86-.26L50.13 21.7 91.2 50.43c.67.47 1.6.3 2.07-.36l6.6-9.44c.23-.32.32-.72.25-1.1-.06-.4-.3-.74-.6-.97zm-12.04 15.1L51 28.14c-.5-.36-1.2-.36-1.7 0L12.63 53.8c-.4.28-.63.74-.63 1.22v39.46c0 .82.67 1.48 1.5 1.48H39c.82 0 1.5-.66 1.5-1.48v-34.4h19.3v34.4c0 .82.67 1.48 1.5 1.48h25.3c.83 0 1.5-.66 1.5-1.48v-39.6c0-.48-.24-.93-.64-1.2zM74.2 15.77l11.42 8c.26.17.56.26.86.26.23 0 .47-.06.7-.17.48-.26.8-.77.8-1.32V5.68c0-.82-.68-1.5-1.5-1.5H75.06c-.82 0-1.48.68-1.48 1.5v8.87c0 .48.23.94.63 1.22z"/></svg>