<svg xmlns="http://www.w3.org/2000/svg" viewBox="0 0 100 100"><path fill="#ccc" d="M96.32 68.66l-6.3-3.7c.2-2.53-.1-5-.84-7.3l5.28-5.04-3.64-5.77-6.8 2.62c-1.8-1.66-3.9-3-6.26-3.9l-.65-7.27-6.7-.74-2.2 6.96c-2.5.36-4.8 1.2-6.9 2.45l-6.1-4.03-4.8 4.84 4.1 6.06c-1.2 2.1-2 4.43-2.4 6.96l-7 2.24.8 6.78 7.3.6c.9 2.3 2.27 4.43 3.97 6.22l-2.56 6.83 5.8 3.6 5.05-5.3c1.18.36 2.38.6 3.64.75 1.24.14 2.5.15 3.7.05l3.72 6.27 6.44-2.27-1.04-7.22c2.02-1.38 3.8-3.16 5.2-5.23l7.2 1 2.23-6.46zm-26 .38l-3.1-.14-1.47-2.7-1.8-2.5 1.18-2.84.83-2.97 2.96-.9 2.84-1.2 2.5 1.8L77 59.1l.16 3.07.55 3.03-2.3 2.05-2 2.32-3-.53zM46.2 24.47l-4.45 1.6.64 4.4 4.7.23c.6 1.5 1.5 2.83 2.7 3.95l-1.6 4.5 3.8 2.22 3.1-3.55c.73.22 1.52.36 2.33.42.8.06 1.6.05 2.4-.05l2.54 4 4.13-1.7-.8-4.7c1.3-1 2.4-2.2 3.3-3.5l4.7.5 1.33-4.3L71 26.4c.08-1.66-.17-3.25-.7-4.72l3.33-3.38-2.48-3.67-4.38 1.84c-1.2-1.05-2.6-1.88-4.14-2.4l-.56-4.72-4.4-.35-1.3 4.58c-1.6.28-3.1.88-4.44 1.72l-4.03-2.5-3.03 3.25 2.77 3.86c-.76 1.4-1.26 3-1.43 4.6zm8.57-.22l.48-1.95 1.9-.6 1.83-.85 1.66 1.1 1.8.9.16 2 .42 1.96-1.46 1.4-1.28 1.6-1.97-.3h-2l-1-1.7-1.2-1.6.7-1.8zm-7.87 33.4l1.7-5.5-5.4-2.94c.1-2.1-.24-4.2-.92-6.1l4.3-4.4-3.22-4.7-5.66 2.4c-1.55-1.3-3.36-2.4-5.37-3.1l-.74-6.1-5.8-.4-1.7 5.9c-2.1.4-4.1 1.2-5.8 2.3l-5.2-3.2L9.2 36l3.6 5c-1 1.8-1.6 3.8-1.9 5.9L5.1 49l.84 5.7 6.15.3c.8 1.93 2 3.67 3.5 5.13l-2 5.8 4.94 2.87 4.06-4.6c1 .3 2 .46 3.04.55 1.06.1 2.1.07 3.12-.05l3.3 5.16 5.34-2.1-1.07-6.03c1.7-1.2 3.1-2.74 4.22-4.52l6.1.7zm-20.2-4.47l-2.6-.04-1.3-2.23-1.6-2 .92-2.4.62-2.5 2.47-.8 2.4-1.1 2.2 1.5 2.3 1.2.3 2.6.6 2.5-1.9 1.8-1.64 2-2.56-.33z"/></svg>