<svg xmlns="http://www.w3.org/2000/svg" xmlns:xlink="http://www.w3.org/1999/xlink" version="1.1" id="Layer_1" x="0px" y="0px" width="100px" height="100px" viewBox="0 0 100 100" enable-background="new 0 0 100 100" xml:space="preserve">
<path fill="#000000" d="M96.323,68.662l-6.3-3.697c0.209-2.538-0.101-5.015-0.84-7.312l5.281-5.034l-3.648-5.766l-6.807,2.615  c-1.778-1.659-3.897-2.999-6.247-3.888c-0.002,0-0.003-0.001-0.004-0.002l-0.644-7.275l-6.782-0.743l-2.203,6.96  c-2.489,0.361-4.838,1.211-6.937,2.45c-0.001,0.001-0.002,0.001-0.003,0.002l-6.086-4.03l-4.81,4.84l4.067,6.059  c-1.219,2.089-2.048,4.427-2.398,6.955l-6.956,2.248l0.785,6.775l7.27,0.599c0,0.001,0,0.002,0,0.002  c0.9,2.312,2.24,4.431,3.94,6.221l-2.574,6.829l5.788,3.611l5.008-5.32c1.16,0.37,2.359,0.62,3.618,0.76  c1.249,0.141,2.488,0.15,3.697,0.051l3.731,6.268l6.433-2.272l-1.034-7.221c2.037-1.38,3.815-3.157,5.193-5.225v-0.001l7.226,0.99  L96.323,68.662z M70.313,69.04l-3.08-0.14l-1.48-2.7l-1.8-2.5l1.18-2.84l0.83-2.971l2.96-0.85l2.84-1.2l2.511,1.79l2.71,1.46  l0.159,3.08l0.551,3.03l-2.311,2.05l-2.03,2.32L70.313,69.04z"/>
<path fill="#000000" d="M46.214,24.47l-4.468,1.601l0.648,4.385l4.739,0.24c0,0,0,0.001,0,0.001  c0.629,1.489,1.549,2.829,2.679,3.958l-1.534,4.488l3.832,2.228l3.145-3.554h0.001c0.761,0.221,1.551,0.36,2.36,0.42  c0.82,0.061,1.61,0.051,2.4-0.05h0.004l2.554,3.999l4.131-1.606l-0.817-4.663c1.299-0.939,2.408-2.129,3.269-3.499  c0.001-0.001,0.001-0.003,0.002-0.003l4.707,0.495l1.319-4.231l-4.168-2.276c0-0.001,0-0.003,0-0.005c0.08-1.66-0.17-3.25-0.69-4.72  c-0.001-0.001-0.001-0.003-0.002-0.005l3.328-3.375l-2.486-3.67l-4.372,1.839c-1.197-1.048-2.586-1.878-4.134-2.407l-0.565-4.705  l-4.418-0.345l-1.291,4.567c-1.61,0.28-3.122,0.881-4.462,1.721c-0.002,0.001-0.004,0.003-0.006,0.004l-4.024-2.488l-3.025,3.24  l2.765,3.853l0,0.001C46.884,21.285,46.385,22.822,46.214,24.47z M54.775,24.247l0.471-1.95l1.91-0.61l1.82-0.84l1.66,1.11  l1.79,0.899l0.17,1.99l0.42,1.96l-1.46,1.38l-1.271,1.54l-1.979-0.28l-2-0.029l-1.021-1.721l-1.223-1.59L54.775,24.247z"/>
<path fill="#000000" d="M46.893,57.644l1.704-5.491l-5.402-2.94c0-0.002,0-0.005,0-0.007c0.094-2.143-0.23-4.215-0.911-6.129  l4.309-4.382l-3.229-4.756l-5.667,2.392c-1.549-1.357-3.36-2.428-5.365-3.116l-0.74-6.1l-5.732-0.439l-1.66,5.913  c-0.002,0.001-0.003,0.001-0.004,0.001c-2.09,0.374-4.042,1.155-5.776,2.261l-5.234-3.226L9.266,35.83l3.589,4.99  c-0.961,1.788-1.606,3.781-1.83,5.924l-5.793,2.082l0.847,5.686l6.138,0.304c0.001,0.001,0.001,0.002,0.002,0.004  c0.821,1.924,2.009,3.659,3.49,5.117l0,0l-1.984,5.832l4.975,2.884l4.061-4.606c0.985,0.27,2.01,0.447,3.071,0.535  c1.062,0.077,2.102,0.055,3.12-0.058c0.001,0,0.003,0,0.005,0l3.311,5.17l5.354-2.092l-1.07-6.054  c1.683-1.227,3.12-2.757,4.231-4.539c0,0,0-0.001,0.001-0.001L46.893,57.644z M26.706,53.18l-2.592-0.035l-1.328-2.232l-1.585-2.056  l0.919-2.421l0.616-2.523l2.473-0.794l2.357-1.091l2.161,1.435l2.315,1.161l0.226,2.585l0.545,2.539l-1.892,1.791l-1.648,2.007  L26.706,53.18z"/>
</svg>