<svg xmlns="http://www.w3.org/2000/svg" viewBox="0 0 100 100"><path fill="#ccc" d="M71.02 2.8c-11.17 0-17.17 6.32-20.76 11.88C46.83 9.08 40.9 2.8 29.1 2.8 11.85 2.8.7 16.03.7 36.5c0 31.98 43.86 59.58 45.73 60.74 1.1.7 2.37 1.03 3.63 1.03 1.24 0 2.48-.33 3.58-1 1.87-1.15 45.78-28.33 45.78-60.78 0-20.5-11.15-33.7-28.4-33.7zM50.1 83.17C37.55 74.5 14.44 54.74 14.44 36.5c0-17.35 9.18-19.94 14.64-19.94 6.64 0 8.57 3.28 11.42 9.08 1.34 2.74 2.74 5.58 5.18 7.58 2.54 2.06 6.17 2.06 8.7 0 2.35-1.9 3.77-4.57 5.3-7.37 3.08-5.76 5.3-9.3 11.3-9.3 5.48 0 14.66 2.6 14.66 19.94.02 18.5-23.06 38.1-35.54 46.65z"/></svg>