<svg xmlns="http://www.w3.org/2000/svg" xmlns:xlink="http://www.w3.org/1999/xlink" version="1.1" x="0px" y="0px" width="100px" height="100px" viewBox="0 0 100 100" enable-background="new 0 0 100 100" xml:space="preserve">
<g id="Captions">
</g>
<g id="Your_Icon">
	<path fill="#ccc" d="M71.015,2.803c-11.162,0-17.164,6.321-20.758,11.873C46.828,9.084,40.901,2.803,29.104,2.803   c-17.253,0-28.4,13.223-28.4,33.684c0,31.993,43.858,59.592,45.726,60.75c1.111,0.689,2.369,1.035,3.629,1.035   c1.242,0,2.485-0.336,3.586-1.008c1.868-1.143,45.771-28.324,45.771-60.777C99.414,16.025,88.268,2.803,71.015,2.803z    M50.085,83.17c-12.509-8.658-35.622-28.427-35.622-46.684c0-17.335,9.173-19.924,14.641-19.924c6.648,0,8.58,3.278,11.422,9.073   c1.348,2.746,2.741,5.587,5.186,7.58c2.53,2.063,6.161,2.062,8.691,0.002c2.346-1.911,3.772-4.564,5.285-7.372   c3.097-5.756,5.301-9.283,11.327-9.283c5.468,0,14.64,2.589,14.64,19.924C85.654,55.027,62.584,74.627,50.085,83.17z"/>
</g>
</svg>
