<?xml version="1.0" encoding="utf-8"?>
<svg version="1.1" xmlns="http://www.w3.org/2000/svg" xmlns:xlink="http://www.w3.org/1999/xlink" viewBox="0 0 88.57 100">
	<polygon fill="#ccc" points="49.361,41.747 49.361,36.802 36.163,36.802 36.163,41.878 39.209,41.878 39.209,60.152 36.163,60.152 36.163,65.229 52.407,65.229 52.407,60.152 49.361,60.152"/>
	<circle fill="#ccc" cx="44.285" cy="28.549" r="5.076"/>
	<path fill="#ccc" d="M88.57,44.285C88.57,19.866,68.704,0,44.285,0C19.866,0,0,19.866,0,44.285 c0,19.692,12.92,36.414,30.727,42.154L44.285,100l13.559-13.559C75.65,80.699,88.57,63.978,88.57,44.285z M44.285,77.144 c-18.118,0-32.856-14.743-32.856-32.858c0-18.117,14.739-32.857,32.856-32.857s32.856,14.74,32.856,32.857 C77.142,62.401,62.402,77.144,44.285,77.144z"/>
</svg>
