<svg xmlns="http://www.w3.org/2000/svg" viewBox="0 0 100 100"><g transform="translate(5.715)" fill="#ccc"><path d="M49.36 41.75V36.8h-13.2v5.08h3.05v18.27h-3v5.08h16.2v-5.08h-3.03z"/><circle cx="44.28" cy="28.55" r="5.08"/><path d="M88.57 44.28C88.57 19.88 68.7 0 44.3 0 19.85 0-.02 19.87-.02 44.28c0 19.7 12.92 36.42 30.73 42.16L44.3 100l13.56-13.56C75.66 80.7 88.6 63.98 88.6 44.28zM44.3 77.14c-18.15 0-32.9-14.74-32.9-32.84 0-18.13 14.74-32.87 32.85-32.87s32.9 14.74 32.9 32.87c0 18.1-14.75 32.84-32.87 32.84z"/></g></svg>