<svg xmlns="http://www.w3.org/2000/svg" viewBox="0 0 100 100"><path fill="#ccc" d="M59.94 97.9s-.92 0-1.36-.1l-1.66-.42c-1.33-.35-2.44-1.18-3.12-2.37-.7-1.16-.88-2.6-.52-3.92l1.92-6.98H26.4l-2.76 10.1c-.6 2.2-2.64 3.8-4.96 3.8-.44 0-.9-.04-1.32-.15l-1.66-.44c-1.32-.33-2.42-1.2-3.1-2.36-.7-1.2-.88-2.57-.52-3.9L35.16 5.88c.6-2.24 2.64-3.8 4.96-3.8.44 0 .9.06 1.33.17l1.65.45c1.32.34 2.43 1.2 3.1 2.38.7 1.18.88 2.43.52 3.75l-1.92 6.4h28.8l2.76-9.5C76.96 3.5 79 2 81.3 2c.46 0 .9.1 1.35.2l1.65.47c1.32.35 2.43 1.2 3.1 2.4.7 1.18.88 2.57.53 3.9l-23.06 85.2c-.6 2.23-2.4 3.72-4.93 3.72zm-1.6-24.86l4.5-16.97h-28.8L29.5 73.04h28.8zm7.63-28.87L70.47 28h-28.8l-4.5 16.17h28.8z"/></svg>