<svg xmlns="http://www.w3.org/2000/svg" viewBox="0 0 80 80"><path fill="#ccc" d="M39.75 5.5C20.83 5.5 5.5 20.83 5.5 39.75S20.83 74 39.75 74 74 58.67 74 39.75 58.67 5.5 39.75 5.5zm0 64.5C23.05 70 9.5 56.46 9.5 39.75 9.5 23.05 23.04 9.5 39.75 9.5 56.45 9.5 70 23.04 70 39.75 70 56.45 56.46 70 39.75 70zm-2.62-17.62c0 2.34-1.9 4.24-4.26 4.24-2.34 0-4.24-1.9-4.24-4.24V28.75c0-2.35 1.9-4.25 4.25-4.25 2.34 0 4.24 1.9 4.24 4.25v23.63zm14 0c0 2.34-1.9 4.24-4.26 4.24-2.34 0-4.24-1.9-4.24-4.24V28.75c0-2.35 1.9-4.25 4.24-4.25 2.35 0 4.26 1.9 4.26 4.25v23.63z"/></svg>