<?xml version="1.0" encoding="utf-8"?>
<svg xmlns="http://www.w3.org/2000/svg" xmlns:xlink="http://www.w3.org/1999/xlink" version="1.1" viewBox="0 0 80 80">
	<path fill="#ccc" d="M39.75,5.5C20.834,5.5,5.5,20.834,5.5,39.75C5.5,58.666,20.834,74,39.75,74C58.666,74,74,58.666,74,39.75 C74,20.834,58.666,5.5,39.75,5.5z M39.75,70C23.043,70,9.5,56.457,9.5,39.75C9.5,23.043,23.043,9.5,39.75,9.5 C56.457,9.5,70,23.043,70,39.75C70,56.457,56.457,70,39.75,70z" />
	<path fill="#ccc" d="M37.125,52.375c0,2.348-1.903,4.25-4.25,4.25l0,0c-2.347,0-4.25-1.902-4.25-4.25V28.75c0-2.347,1.903-4.25,4.25-4.25l0,0 c2.347,0,4.25,1.903,4.25,4.25V52.375z" />
	<path fill="#ccc" d="M51.125,52.375c0,2.348-1.902,4.25-4.25,4.25l0,0c-2.348,0-4.25-1.902-4.25-4.25V28.75c0-2.347,1.902-4.25,4.25-4.25l0,0 c2.348,0,4.25,1.903,4.25,4.25V52.375z" />
</svg>
