<svg xmlns="http://www.w3.org/2000/svg" xmlns:xlink="http://www.w3.org/1999/xlink" version="1.1" id="Layer_1" x="0px" y="0px" width="100px" height="100px" viewBox="0 0 100 100" enable-background="new 0 0 100 100" xml:space="preserve">
<path d="M50.002,3.162c-25.826,0-46.835,21.009-46.835,46.841c0,25.826,21.009,46.835,46.835,46.835  c25.826,0,46.83-21.009,46.83-46.835C96.832,24.171,75.828,3.162,50.002,3.162z M50.002,86.871  c-20.36,0-36.875-16.508-36.875-36.868c0-20.369,16.515-36.874,36.875-36.874c20.361,0,36.873,16.505,36.873,36.874  C86.875,70.363,70.363,86.871,50.002,86.871z"/>
<path d="M40.563,34.64c-0.829-0.833-2.949-0.833-2.949,0v33.845c0,0.834,2.125,0.834,2.957,0l27.781-15.417  c0.832-0.829,0.846-2.178,0.016-3.01L40.563,34.64z"/>
</svg>