<?xml version="1.0" encoding="utf-8"?>
<svg xmlns="http://www.w3.org/2000/svg" xmlns:xlink="http://www.w3.org/1999/xlink" version="1.1" viewBox="0 0 512 512">
	<path fill="#ccc" d="M337.828,443.422c-22.656,10.875-47.5,17.813-73.734,19.813v-64.813c14.609-1.625,28.672-4.906,41.609-10.594 L337.828,443.422z"/>
	<path fill="#ccc" d="M105.719,240.047H40.906c8.219-107.219,97.906-192,207.188-192c64.297,0,124.734,30.094,163.797,79.969l59.813-34.563 l0.125,197.844l-171.406-98.813l55.094-31.875c-27.063-30.313-66-48.563-107.422-48.563 C174.156,112.047,113.781,168.234,105.719,240.047z"/>
	<path fill="#ccc" d="M363.578,341.203l56,32.313c-14.531,21.156-32.875,39.469-54,54.031l-32.313-56 C344.828,362.984,355.016,352.766,363.578,341.203z"/>
	<path fill="#ccc" d="M232.094,398.422v64.813c-26.25-2-51.094-8.938-73.719-19.813l32.094-55.594 C203.438,393.516,217.5,396.797,232.094,398.422z"/>
	<path fill="#ccc" d="M162.938,371.547l-32.313,56c-21.156-14.563-39.5-32.875-54.031-54.031l56-32.313 C141.156,352.766,151.344,362.984,162.938,371.547z"/>
	<path fill="#ccc" d="M116.281,313.641l-55.563,32.094c-10.875-22.625-17.813-47.438-19.813-73.688h64.813 C107.344,286.641,110.625,300.703,116.281,313.641z"/>
</svg>
