<svg xmlns="http://www.w3.org/2000/svg" viewBox="0 0 512 512"><path fill="#ccc" d="M337.83 443.42c-22.66 10.88-47.5 17.82-73.74 19.82v-64.82c14.6-1.62 28.6-4.9 41.6-10.6l32.1 55.6zm-232.1-203.37h-64.8c8.2-107.22 97.9-192 207.16-192 64.3 0 124.7 30.1 163.8 79.97l59.8-34.57.1 197.85-171.4-98.82 55.1-31.87c-27.1-30.3-66-48.5-107.48-48.5-73.94 0-134.32 56.2-142.38 128zM363.57 341.2l56 32.32c-14.53 21.15-32.88 39.46-54 54.03l-32.32-56c11.57-8.57 21.76-18.78 30.32-30.35zM232.1 398.42v64.82c-26.26-2-51.1-8.94-73.72-19.82l32.1-55.6c12.96 5.7 27.02 8.98 41.6 10.6zm-69.16-26.87l-32.32 56c-21.15-14.57-39.5-32.88-54.03-54.03l56-32.32c8.5 11.57 18.7 21.78 30.3 30.35zm-46.66-57.9l-55.56 32.1c-10.88-22.64-17.8-47.45-19.8-73.7h64.8c1.62 14.6 4.9 28.65 10.56 41.6z"/></svg>