<svg xmlns="http://www.w3.org/2000/svg" xmlns:xlink="http://www.w3.org/1999/xlink" version="1.1" id="Layer_1" x="0px" y="0px" width="100px" height="100px" viewBox="0 0 100 100" enable-background="new 0 0 100 100" xml:space="preserve">
<g>
	<path fill="#000000" d="M74.757,37.876c2.541-2.101,3.692-5.598,2.608-8.923c-1.078-3.326-4.066-5.479-7.355-5.681   c0.827-3.194-0.3-6.697-3.13-8.752c-2.829-2.055-6.504-2.04-9.291-0.272c-1.206-3.069-4.177-5.243-7.675-5.243   c-3.494,0-6.471,2.174-7.677,5.236c-2.781-1.764-6.462-1.776-9.291,0.279c-2.827,2.055-3.954,5.558-3.133,8.752   c-3.286,0.202-6.275,2.355-7.353,5.684c-1.078,3.323,0.071,6.82,2.609,8.92c-2.542,2.098-3.693,5.595-2.609,8.924   c1.078,3.319,4.067,5.476,7.353,5.681c-0.821,3.19,0.306,6.7,3.136,8.749c2.826,2.055,6.507,2.046,9.291,0.272   c1.209,3.068,4.183,5.242,7.677,5.242c3.496,0,6.466-2.174,7.672-5.242c2.787,1.773,6.468,1.782,9.297-0.275   c2.824-2.052,3.951-5.556,3.13-8.749c3.289-0.205,6.278-2.358,7.355-5.687C78.449,43.471,77.298,39.971,74.757,37.876z    M49.914,56.379c-10.216,0-18.5-8.284-18.5-18.503c0-10.216,8.283-18.499,18.5-18.499c10.217,0,18.498,8.283,18.498,18.499   C68.411,48.095,60.131,56.379,49.914,56.379z"/>
	<path fill="#000000" d="M33.9,64.228c0,0,3.262,1.365,7.255,0c0,0,2.523,4.306,7.251,4.306l-1.785,22.603l-9.043-9.462H23.81   L33.9,64.228z"/>
	<path fill="#000000" d="M65.643,64.228c0,0-3.252,1.365-7.251,0c0,0-2.523,4.306-7.25,4.306l1.788,22.603l9.038-9.462h13.769   L65.643,64.228z"/>
</g>
<path fill="#000000" d="M49.914,23.3c-8.051,0-14.574,6.525-14.574,14.576c0,8.048,6.522,14.577,14.574,14.577  c8.049,0,14.578-6.529,14.578-14.577C64.491,29.825,57.963,23.3,49.914,23.3z M55.391,45.786l-5.318-2.643l-5.194,2.875l0.873-5.871  l-4.342-4.051l5.855-0.983l2.511-5.383l2.747,5.264l5.894,0.723l-4.159,4.241L55.391,45.786z"/>
</svg>