<svg xmlns="http://www.w3.org/2000/svg" viewBox="0 0 100 100"><path fill="#ccc" d="M74.76 37.88c2.54-2.1 3.7-5.6 2.6-8.93-1.07-3.32-4.06-5.48-7.35-5.68.9-3.2-.3-6.7-3.1-8.75-2.8-2.06-6.5-2.04-9.3-.27C56.4 11.18 53.4 9 49.9 9c-3.48 0-6.46 2.18-7.66 5.24-2.78-1.76-6.46-1.78-9.3.28-2.82 2.05-3.95 5.56-3.13 8.75-3.2.2-6.2 2.36-7.3 5.7-1.1 3.3.1 6.8 2.6 8.9-2.5 2.1-3.7 5.6-2.6 8.93 1.1 3.32 4.1 5.48 7.38 5.68-.8 3.2.33 6.7 3.16 8.75s6.5 2.05 9.3.27c1.2 3.07 4.16 5.24 7.66 5.24s6.45-2.17 7.66-5.24c2.78 1.77 6.46 1.78 9.3-.27 2.8-2.06 3.94-5.56 3.1-8.75 3.3-.2 6.3-2.36 7.37-5.7 1.06-3.3-.1-6.8-2.6-8.9zM49.9 56.38c-10.2 0-18.5-8.3-18.5-18.5 0-10.22 8.3-18.5 18.5-18.5 10.23 0 18.5 8.28 18.5 18.5 0 10.2-8.27 18.5-18.5 18.5zm-16 7.85s3.26 1.36 7.25 0c0 0 2.53 4.3 7.26 4.3l-1.7 22.6-9.03-9.45H23.8l10.1-17.45zm31.74 0s-3.25 1.36-7.25 0c0 0-2.6 4.3-7.3 4.3l1.8 22.6 9-9.45h13.8L65.6 64.23zM49.9 23.3c-8.04 0-14.56 6.53-14.56 14.58 0 8.04 6.52 14.57 14.57 14.57 8.1 0 14.6-6.53 14.6-14.57 0-8.06-6.5-14.58-14.6-14.58zm5.5 22.5l-5.33-2.66-5.2 2.88.88-5.87-4.34-4.05 5.9-1 2.5-5.37L52.5 35l5.9.72-4.16 4.24 1.13 5.83z"/></svg>