<svg xmlns="http://www.w3.org/2000/svg" viewBox="0 0 100 100">
  <g fill="#ccc" transform="translate(5.71)">
    <path d="M49.36 41.75V36.8h-13.2v5.08h3.05v18.27h-3v5.08h16.2v-5.08h-3.03z"/>
    <circle cx="44.28" cy="28.55" r="5.08"/>
    <path d="M88.57 44.28A44.34 44.34 0 0044.3 0 44.35 44.35 0 00-.02 44.28a44.35 44.35 0 0030.73 42.16L44.3 100l13.56-13.56A44.38 44.38 0 0088.6 44.28zM44.3 77.14A32.9 32.9 0 0111.4 44.3c0-18.13 14.74-32.87 32.85-32.87s32.9 14.74 32.9 32.87a32.9 32.9 0 01-32.87 32.84z"/>
  </g>
</svg>
