<svg xmlns="http://www.w3.org/2000/svg" class="icon heart" viewBox="0 0 100 100">
  <path fill="#ccc" d="M71 2.8a23.5 23.5 0 00-20.7 11.9A23.2 23.2 0 0029 2.8C11.8 2.8.7 16 .7 36.5c0 32 43.9 59.6 45.7 60.7 1.1.7 2.4 1 3.7 1 1.2 0 2.4-.3 3.5-1 2-1 45.8-28.3 45.8-60.7C99.4 16 88.3 2.8 71 2.8zM50.1 83.2c-12.6-8.7-35.7-28.5-35.7-46.7 0-17.4 9.2-20 14.7-20 6.6 0 8.5 3.3 11.4 9.1 1.3 2.8 2.7 5.6 5.2 7.6s6.1 2 8.7 0c2.3-1.9 3.7-4.6 5.3-7.4 3-5.7 5.3-9.3 11.3-9.3 5.5 0 14.6 2.6 14.6 20 0 18.5-23 38-35.5 46.6z"/>
</svg>
