<svg xmlns="http://www.w3.org/2000/svg" viewBox="0 0 100 100">
  <path fill="#ccc" d="M74.76 37.88a8.23 8.23 0 002.6-8.93 8.23 8.23 0 00-7.35-5.68c.9-3.2-.3-6.7-3.1-8.75a8.25 8.25 0 00-9.3-.27 8.24 8.24 0 00-15.37-.01 8.27 8.27 0 00-12.43 9.03 8.27 8.27 0 00-4.7 14.6 8.3 8.3 0 00-2.6 8.93 8.32 8.32 0 007.38 5.68 8.26 8.26 0 0012.46 9.02 8.2 8.2 0 0015.32 0 8.27 8.27 0 009.3-.27 8.26 8.26 0 003.1-8.75 8.24 8.24 0 004.77-14.6zM49.9 56.38a18.5 18.5 0 11.02-36.98 18.5 18.5 0 01-.02 36.98zm-16 7.85s3.26 1.36 7.25 0c0 0 2.53 4.3 7.26 4.3l-1.7 22.6-9.03-9.45H23.8l10.1-17.45zm31.74 0s-3.25 1.36-7.25 0c0 0-2.6 4.3-7.3 4.3l1.8 22.6 9-9.45h13.8L65.6 64.23zM49.9 23.3a14.57 14.57 0 00.01 29.15 14.57 14.57 0 100-29.15zm5.5 22.5l-5.33-2.66-5.2 2.88.88-5.87-4.34-4.05 5.9-1 2.5-5.37L52.5 35l5.9.72-4.16 4.24 1.13 5.83z"/>
</svg>
