<svg xmlns="http://www.w3.org/2000/svg" width="3.5em" height="3.5em" fill-rule="evenodd" stroke-linejoin="round" stroke-miterlimit="1.41" clip-rule="evenodd" viewBox="0 0 16 16">
  <path fill="#55acee" fill-rule="nonzero" d="M16 3.04c-.59.26-1.22.43-1.89.51a3.3 3.3 0 001.45-1.81c-.64.37-1.34.65-2.09.8A3.27 3.27 0 007.8 4.77c0 .26.03.5.09.75A9.33 9.33 0 011.11 2.1a3.28 3.28 0 001.02 4.38 3.28 3.28 0 01-1.49-.4v.03a3.29 3.29 0 002.64 3.22 3.34 3.34 0 01-1.49.06 3.29 3.29 0 003.07 2.28A6.6 6.6 0 010 13.03a9.3 9.3 0 005.03 1.47c6.04 0 9.34-5 9.34-9.34v-.42A6.67 6.67 0 0016 3.04z"/>
</svg>
